<svg width="65" height="64" viewBox="0 0 65 64" fill="none" xmlns="http://www.w3.org/2000/svg">
<path d="M0.5 11.2941C0.5 5.05655 5.55655 0 11.7941 0H53.2059C59.4435 0 64.5 5.05655 64.5 11.2941V52.7059C64.5 58.9435 59.4435 64 53.2059 64H11.7941C5.55655 64 0.5 58.9435 0.5 52.7059V11.2941Z" fill="url(#paint0_linear_239_9277)"/>
<path d="M0.5 11.2941C0.5 5.05655 5.55655 0 11.7941 0H53.2059C59.4435 0 64.5 5.05655 64.5 11.2941V52.7059C64.5 58.9435 59.4435 64 53.2059 64H11.7941C5.55655 64 0.5 58.9435 0.5 52.7059V11.2941Z" fill="url(#paint1_linear_239_9277)" fill-opacity="0.2"/>
<path d="M33 39.1247V35.958" stroke="white" stroke-width="2.375" stroke-linecap="round"/>
<path d="M20.758 42.8374C21.1141 45.4821 23.3045 47.5539 25.9701 47.6764C28.2131 47.7795 30.4915 47.8333 33.0007 47.8333C35.5098 47.8333 37.7882 47.7795 40.0311 47.6764C42.6968 47.5539 44.8872 45.4821 45.2433 42.8374C45.4757 41.1116 45.6673 39.3429 45.6673 37.5417C45.6673 35.7405 45.4757 33.9717 45.2433 32.2459C44.8872 29.6013 42.6968 27.5294 40.0311 27.4069C37.7882 27.3038 35.5098 27.25 33.0007 27.25C30.4915 27.25 28.2131 27.3038 25.9701 27.4069C23.3045 27.5294 21.1141 29.6013 20.758 32.2459C20.5256 33.9717 20.334 35.7405 20.334 37.5417C20.334 39.3429 20.5256 41.1116 20.758 42.8374Z" stroke="white" stroke-width="2.375"/>
<path d="M25.875 27.2503V23.292C25.875 19.357 29.065 16.167 33 16.167C36.1022 16.167 38.5417 18.542 39.3333 20.917" stroke="white" stroke-width="2.375" stroke-linecap="round" stroke-linejoin="round"/>
<defs>
<linearGradient id="paint0_linear_239_9277" x1="32.5" y1="0" x2="32.5" y2="64" gradientUnits="userSpaceOnUse">
<stop stop-color="#1675FF"/>
<stop offset="1" stop-color="#0752BE"/>
</linearGradient>
<linearGradient id="paint1_linear_239_9277" x1="64.5" y1="32" x2="0.5" y2="32" gradientUnits="userSpaceOnUse">
<stop stop-color="white" stop-opacity="0"/>
<stop offset="1" stop-color="white"/>
</linearGradient>
</defs>
</svg>
