<svg width="85" height="22" viewBox="0 0 85 22" fill="none" xmlns="http://www.w3.org/2000/svg">
<path d="M79.8923 13.2377V7.57416H77.9971V5.72316H79.8923V2.41711H81.9197V5.72316H84.5641V7.57416H81.9197V13.0833C81.9197 14.2956 82.4267 14.8465 83.3742 14.8465C83.7486 14.8465 84.0132 14.8023 84.2999 14.67L85.0048 16.4111C84.542 16.6094 84.0571 16.6978 83.3742 16.6978C81.1043 16.6978 79.8923 15.4416 79.8923 13.2377ZM66.8242 11.122C66.8242 8.05874 68.94 5.37046 72.1135 5.37046C75.3309 5.37046 77.4025 7.6401 77.4025 11.122C77.4025 11.2764 77.3804 11.4968 77.3804 11.4968H68.8519C68.9621 13.7888 70.6148 15.0226 72.2897 15.0226C73.4796 15.0226 74.6695 14.538 75.2428 13.1716L77.0499 13.9208C76.4109 15.4633 74.8239 16.8739 72.3338 16.8739C69.0284 16.8739 66.8242 14.3836 66.8242 11.122ZM72.0693 7.22147C70.5709 7.22147 69.3807 8.2352 68.9839 9.82195H75.2428C75.1768 8.8742 74.3831 7.22147 72.0693 7.22147ZM56.8862 15.0226H56.7981V16.521H54.859V0.742216H56.8862V5.72281L56.7981 7.22147H56.8862C57.5034 6.22982 58.848 5.37017 60.5667 5.37017C63.2992 5.37017 65.7014 7.81628 65.7014 11.122C65.7014 14.4278 63.2992 16.8739 60.5667 16.8739C58.848 16.8739 57.5034 16.0143 56.8862 15.0226ZM63.6739 11.122C63.6739 8.69774 62.0433 7.22147 60.2362 7.22147C58.429 7.22147 56.7981 8.65384 56.7981 11.122C56.7981 13.5902 58.429 15.0226 60.2362 15.0226C62.0433 15.0226 63.6739 13.5463 63.6739 11.122ZM43.18 13.2594C43.18 10.8136 45.3836 9.49108 47.9181 9.49108C49.3726 9.49108 50.4302 9.90972 50.8491 10.1525V9.84401C50.8491 8.21308 49.5487 7.22144 48.028 7.22144C46.9044 7.22144 45.8243 7.77235 45.4499 8.78609L43.5989 7.99271C43.9733 7.00107 45.2734 5.37014 47.9841 5.37014C50.6288 5.37014 52.7882 6.95717 52.7882 9.99838V16.5212H50.8491V15.0229H50.7607C50.1659 15.9261 49.0641 16.8739 47.2128 16.8739C45.0089 16.8739 43.18 15.5075 43.18 13.2594ZM50.8491 11.8712C50.8491 11.8712 49.9897 11.1659 48.2704 11.1659C46.1328 11.1659 45.2955 12.3122 45.2955 13.3036C45.2955 14.4499 46.4854 15.0229 47.5434 15.0229C49.1522 15.0229 50.8491 13.6341 50.8491 11.8712ZM33.9909 5.72278L33.9028 7.22115H33.9909C34.5639 6.22951 35.9303 5.37014 37.4069 5.37014C40.1614 5.37014 41.5278 7.24324 41.5278 9.91V16.5212H39.5003V10.2185C39.5003 7.97062 38.3764 7.22115 36.8338 7.22115C35.0706 7.22115 33.9909 8.89627 33.9909 10.549V16.5212H31.9634V0.742474H33.9909V5.72278ZM21.6287 15.0226H21.5406L21.6287 16.521V21.2815H19.6012V5.72278H21.5406V7.22144H21.6287C22.2459 6.22979 23.5901 5.37014 25.3092 5.37014C28.0416 5.37014 30.4438 7.81625 30.4438 11.122C30.4438 14.4278 28.0416 16.8739 25.3092 16.8739C23.5901 16.8739 22.2459 16.0142 21.6287 15.0226ZM28.4164 11.122C28.4164 8.69771 26.7854 7.22144 24.9786 7.22144C23.1712 7.22144 21.5406 8.65381 21.5406 11.122C21.5406 13.5902 23.1712 15.0226 24.9786 15.0226C26.7854 15.0226 28.4164 13.5463 28.4164 11.122ZM15.4145 16.5212H17.442V0.742474H15.4145V16.5212ZM6.00512 0.742188L0.0546875 16.5212H2.30281L3.84508 12.2459H10.4787L11.9994 16.5212H14.247L8.29686 0.742188H6.00512ZM7.10666 3.23248H7.19503L9.77342 10.3504H4.52856L7.10666 3.23248Z" fill="white"/>
</svg>
