<svg width="129" height="22" viewBox="0 0 129 22" fill="none" xmlns="http://www.w3.org/2000/svg">
<g clip-path="url(#clip0_2253_39274)">
<path d="M30.1699 5.21747H33.8518C35.6125 5.21747 36.9465 5.66223 37.8536 6.55071C38.7606 7.44003 39.2143 8.70954 39.2143 10.3593V11.2535C39.2143 12.8823 38.7553 14.147 37.8373 15.0461C36.9195 15.9459 35.591 16.3956 33.8516 16.3956H30.1699V5.21747ZM32.0908 6.91002V14.7027H33.8518C34.9616 14.7027 35.7965 14.4206 36.3568 13.8566C36.9173 13.2922 37.1971 12.4246 37.1971 11.2535V10.3593C37.1971 9.19949 36.9143 8.33421 36.3488 7.76432C35.7832 7.19529 34.9506 6.91002 33.8516 6.91002H32.0908Z" fill="white"/>
<path d="M44.3356 16.5402C43.1297 16.5402 42.1881 16.1994 41.5104 15.5181C40.8326 14.8369 40.4941 13.8838 40.4941 12.6596V12.1484C40.4941 11.5416 40.5821 10.999 40.7581 10.5196C40.9341 10.0406 41.1904 9.63343 41.5265 9.29819C41.8626 8.96294 42.2655 8.70742 42.735 8.53162C43.2043 8.35612 43.7379 8.26788 44.3356 8.26788C45.5417 8.26788 46.4833 8.60908 47.1611 9.28997C47.8388 9.97124 48.1778 10.9242 48.1778 12.1484V12.6596C48.1778 13.2664 48.0898 13.8091 47.9136 14.2885C47.7375 14.7674 47.4816 15.1746 47.1453 15.5099C46.809 15.8452 46.4033 16.1007 45.9285 16.2764C45.4537 16.4518 44.9226 16.5402 44.3356 16.5402ZM44.3356 14.8151C44.944 14.8151 45.4109 14.6396 45.7365 14.2883C46.0619 13.9368 46.2248 13.3941 46.2248 12.6595V12.1482C46.2248 11.4245 46.0564 10.8841 45.7206 10.5276C45.3845 10.171 44.9226 9.99272 44.3359 9.99272C43.7275 9.99272 43.2606 10.1683 42.9353 10.5196C42.6096 10.8711 42.4471 11.4137 42.4471 12.1484V12.6596C42.4471 13.3833 42.6149 13.9237 42.9512 14.2802C43.2875 14.6368 43.7489 14.8151 44.3356 14.8151Z" fill="white"/>
<path d="M50.4597 15.7171C50.006 15.2645 49.7793 14.6128 49.7793 13.7608V5.21747H51.6361V13.5692C51.6361 13.984 51.7269 14.2879 51.9083 14.4795C52.0898 14.671 52.3671 14.767 52.7408 14.767H53.1409V16.3959H52.4045C51.5615 16.3956 50.9132 16.1693 50.4597 15.7171Z" fill="white"/>
<path d="M58.5359 16.5404C57.5325 16.5404 56.7535 16.226 56.1986 15.5979V19.5902H54.3418V8.41181H55.7984L55.9746 9.49795C56.2519 9.08275 56.6068 8.77388 57.0388 8.57133C57.4711 8.36938 57.9699 8.26788 58.5359 8.26788C58.9946 8.26788 59.4187 8.35062 59.8084 8.51542C60.1979 8.68104 60.5312 8.92579 60.8089 9.25004C61.0862 9.57519 61.3051 9.97968 61.465 10.4641C61.6251 10.9485 61.7052 11.5097 61.7052 12.1484V12.6596C61.7052 13.2983 61.6251 13.8572 61.465 14.3364C61.3049 14.8153 61.0834 15.2202 60.8006 15.55C60.5179 15.8802 60.1845 16.1277 59.8002 16.2922C59.4162 16.4574 58.9946 16.5404 58.5359 16.5404ZM57.9754 14.8153C58.5407 14.8153 58.9786 14.6452 59.2882 14.3045C59.5974 13.9638 59.7525 13.4156 59.7525 12.6596V12.1484C59.7525 11.4137 59.5923 10.8711 59.2723 10.5196C58.9521 10.1685 58.52 9.99272 57.9756 9.99272C57.4635 9.99272 57.0446 10.1683 56.7188 10.5196C56.3934 10.8711 56.2199 11.3821 56.1986 12.0529V12.6596C56.1986 13.3621 56.3669 13.8969 56.7028 14.2644C57.0388 14.6318 57.4633 14.8153 57.9754 14.8153Z" fill="white"/>
<path d="M63.3066 5.21747H65.1636V9.09799C65.6971 8.54437 66.4385 8.2673 67.3887 8.2673C68.3704 8.2673 69.1359 8.55741 69.6856 9.13785C70.2353 9.7183 70.51 10.5934 70.51 11.7647V16.3956H68.6532V11.7647C68.6532 11.1792 68.5117 10.7371 68.2289 10.4392C67.946 10.1413 67.5591 9.99213 67.0684 9.99213C66.4921 9.99213 66.0359 10.1464 65.6998 10.4553C65.3635 10.7641 65.1846 11.1739 65.1636 11.6847V16.3956H63.3066V5.21747Z" fill="white"/>
<path d="M73.519 7.45215C73.1775 7.45215 72.8922 7.338 72.6626 7.10866C72.4327 6.87995 72.3184 6.59511 72.3184 6.25436C72.3184 5.91362 72.4327 5.62899 72.6626 5.40007C72.8919 5.17136 73.1775 5.05658 73.519 5.05658C73.8496 5.05658 74.1329 5.17115 74.3676 5.40007C74.6019 5.62878 74.7196 5.91362 74.7196 6.25436C74.7196 6.59511 74.6019 6.87973 74.3676 7.10866C74.1329 7.338 73.8496 7.45215 73.519 7.45215ZM72.5908 8.41007H74.4475V16.3947H72.5908V8.41007Z" fill="white"/>
<path d="M76.6082 8.41181H78.064L78.2087 9.30595C78.8055 8.61413 79.6329 8.26788 80.6901 8.26788C81.6712 8.26788 82.4367 8.55799 82.9868 9.13844C83.5361 9.71888 83.8112 10.594 83.8112 11.7653V16.3965H81.9545V11.7655C81.9545 11.18 81.8121 10.738 81.5295 10.44C81.2469 10.1421 80.8604 9.99294 80.3698 9.99294C79.7934 9.99294 79.3367 10.1472 79.0006 10.4561C78.6646 10.7649 78.4852 11.1747 78.4649 11.6855V16.3965H76.6074L76.6082 8.41181Z" fill="white"/>
<path d="M90.5343 6.23971H89.7981C88.5811 6.23971 87.973 6.87837 87.973 8.15615V10.2316C87.973 10.711 87.9007 11.1395 87.7568 11.5172C87.6128 11.8957 87.2948 12.1909 86.8043 12.4037C87.0499 12.5211 87.2496 12.654 87.4041 12.8032C87.5593 12.9523 87.6791 13.1197 87.7643 13.3057C87.8502 13.4922 87.906 13.6918 87.9331 13.9047C87.9595 14.1176 87.973 14.3414 87.973 14.5753V16.6512C87.973 17.9289 88.5811 18.5675 89.7981 18.5675H90.5343V19.5896H89.7981C87.8344 19.5896 86.8525 18.6097 86.8525 16.6512V14.575C86.8525 14.0111 86.7267 13.6039 86.4765 13.3536C86.2256 13.1034 85.9242 12.9519 85.5723 12.8983V11.9086C85.9242 11.8554 86.2256 11.7035 86.4765 11.4532C86.7267 11.203 86.8525 10.796 86.8525 10.2314V8.15592C86.8525 6.1973 87.8344 5.21747 89.7981 5.21747H90.5343V6.23971Z" fill="white"/>
<path d="M94.4579 16.5069C93.6577 16.5069 93.0436 16.3022 92.6171 15.8923C92.1898 15.4825 91.9766 14.9157 91.9766 14.1915C91.9766 13.8081 92.0383 13.4596 92.1604 13.1452C92.2832 12.8312 92.4807 12.568 92.7527 12.3551C93.0255 12.1422 93.3744 11.977 93.8016 11.8596C94.2281 11.7428 94.7405 11.6841 95.3381 11.6841H97.1631V10.9655C97.1631 10.391 97.0215 9.96751 96.7389 9.69594C96.4563 9.42482 95.9891 9.28873 95.3381 9.28873C94.7511 9.28873 94.311 9.40334 94.0171 9.63227C93.724 9.86157 93.556 10.1726 93.5138 10.5665H92.3767C92.3978 10.2363 92.4731 9.9333 92.6005 9.6563C92.7286 9.37931 92.9155 9.13998 93.1611 8.93766C93.4068 8.73534 93.7104 8.57838 94.0736 8.46655C94.4368 8.35511 94.8581 8.29919 95.3381 8.29919C96.2875 8.29919 97.0056 8.53339 97.4917 9.00164C97.9769 9.47018 98.2196 10.1252 98.2196 10.9657V16.3953H97.4027L97.243 14.8943C96.9649 15.4051 96.5844 15.8018 96.0984 16.0839C95.6123 16.3658 95.066 16.5069 94.4579 16.5069ZM94.5378 15.517C94.9003 15.517 95.2424 15.4505 95.5619 15.3174C95.8821 15.1844 96.1624 15.0034 96.4028 14.7743C96.6424 14.5455 96.8293 14.2793 96.9627 13.9758C97.0961 13.6725 97.1631 13.3505 97.1631 13.0097V12.6426H95.3381C94.516 12.6426 93.932 12.7863 93.5853 13.0735C93.2387 13.361 93.0647 13.7339 93.0647 14.1915C93.0647 14.596 93.1905 14.9179 93.4414 15.1576C93.6916 15.3969 94.0578 15.517 94.5378 15.517Z" fill="white"/>
<path d="M100.858 8.41064H101.674L101.802 9.7202C102.069 9.26258 102.429 8.91151 102.883 8.66631C103.337 8.42157 103.862 8.29919 104.459 8.29919C105.377 8.29919 106.1 8.57627 106.628 9.12928C107.157 9.6829 107.421 10.5079 107.421 11.6046V16.3953H106.364V11.6048C106.364 10.8279 106.183 10.2475 105.82 9.8639C105.457 9.48058 104.951 9.28896 104.3 9.28896C103.595 9.28896 103.027 9.49128 102.594 9.89578C102.163 10.3006 101.936 10.8378 101.914 11.5088V16.3953H100.857L100.858 8.41064Z" fill="white"/>
<path d="M108.943 8.41169H110.383V6.17645H111.44V8.41169H113.585V9.36996H111.44V14.1607C111.44 15.0123 111.835 15.438 112.625 15.438H113.746V16.3963H112.496C111.803 16.3963 111.277 16.2181 110.92 15.8615C110.563 15.5049 110.383 14.9804 110.383 14.2886V9.37018H108.943V8.41169Z" fill="white"/>
<path d="M118.339 16.3967L115.025 8.41205H116.21L118.915 15.0871L121.428 8.41205H122.549L118.226 19.5904H117.106L118.339 16.3967Z" fill="white"/>
<path d="M123.574 18.5672H124.31C125.527 18.5672 126.135 17.9285 126.135 16.6507V14.5748C126.135 14.0959 126.207 13.6673 126.351 13.2893C126.495 12.9118 126.812 12.616 127.303 12.4031C127.058 12.2863 126.858 12.1529 126.704 12.0037C126.548 11.8549 126.429 11.6872 126.343 11.5007C126.258 11.3147 126.202 11.115 126.175 10.9022C126.149 10.6892 126.135 10.466 126.135 10.2312V8.1557C126.135 6.87795 125.527 6.23929 124.31 6.23929H123.574V5.21747H124.31C126.274 5.21747 127.256 6.1973 127.256 8.15593V10.2314C127.256 10.7958 127.381 11.2034 127.632 11.4537C127.882 11.7035 128.184 11.8554 128.536 11.9086V12.8983C128.184 12.9519 127.882 13.1034 127.632 13.3536C127.381 13.6034 127.256 14.0109 127.256 14.575V16.6509C127.256 18.6096 126.274 19.5894 124.31 19.5894H123.574V18.5672Z" fill="white"/>
<path d="M0.435547 10.807C0.435547 0.257568 0.435547 0.257568 11.0107 0.257568C21.5858 0.257568 21.5858 0.257568 21.5858 10.807C21.5858 21.3565 21.5858 21.3565 11.0107 21.3565C0.435547 21.3565 0.435547 21.3565 0.435547 10.807Z" fill="url(#paint0_linear_2253_39274)"/>
<path d="M15.3566 10.3605V11.2589C15.3566 12.8823 14.8963 14.1465 13.9761 15.0512C13.0622 15.9496 11.735 16.3957 9.99412 16.3957H7.05273C7.8262 16.0629 8.21307 15.3443 8.21307 14.2398V12.5631C8.21307 12.1039 8.31307 11.7777 8.51336 11.5718C8.7202 11.372 8.96028 11.2521 9.24685 11.2057V10.4076C8.96028 10.3607 8.7202 10.2413 8.51336 10.0415C8.31307 9.83513 8.21307 9.50938 8.21307 9.05025V7.37314C8.21307 6.26883 7.8262 5.5502 7.05273 5.21747H9.9939C11.7549 5.21747 13.0888 5.66329 13.9958 6.55493C14.9033 7.43939 15.3566 8.71041 15.3566 10.3605Z" fill="white"/>
</g>
<defs>
<linearGradient id="paint0_linear_2253_39274" x1="11.0107" y1="0.257568" x2="11.0107" y2="21.3565" gradientUnits="userSpaceOnUse">
<stop offset="0.0056" stop-color="#B645EE"/>
<stop offset="1" stop-color="#9B26B6"/>
</linearGradient>
<clipPath id="clip0_2253_39274">
<rect width="128.1" height="21.0989" fill="white" transform="translate(0.435547 0.25769)"/>
</clipPath>
</defs>
</svg>
