<svg width="105" height="24" viewBox="0 0 105 24" fill="none" xmlns="http://www.w3.org/2000/svg">
<g clip-path="url(#clip0_2253_39402)">
<path fill-rule="evenodd" clip-rule="evenodd" d="M12.318 19.0909C13.8837 20.2481 14.8368 21.5415 14.8368 22.8349V22.903H18.6489V22.8349C18.6489 21.6096 19.3977 20.4524 21.0996 19.3632L21.1676 19.2951H21.2357V14.5299C21.0996 14.598 21.0315 14.6661 20.9634 14.7341L20.8273 14.8022C20.1465 15.2107 19.5339 15.551 19.0573 15.9595L18.9893 16.0276C18.1724 16.6402 17.3555 17.321 16.7428 18.0698C16.1302 17.321 15.3814 16.6402 14.4964 16.0276C13.9518 15.6191 13.3391 15.2787 12.6584 14.8703L12.5223 14.8022C12.4542 14.7341 12.3861 14.7341 12.25 14.6661L11.0927 13.9853C10.8885 13.8492 10.7523 13.7811 10.6162 13.713L10.48 13.645C9.73122 13.2365 9.05049 12.8281 8.43782 12.4196C7.28057 11.6028 6.53175 10.7859 6.12331 9.90091C5.85102 9.28824 5.78294 8.74365 5.78294 8.19906C5.78294 6.22492 7.34864 4.65922 9.32278 4.65922C11.2969 4.65922 12.8626 6.22492 12.8626 8.19906C12.8626 8.74365 12.7945 9.28824 12.5223 9.90091C12.1819 10.6497 11.5692 11.3985 10.6843 12.0793C10.8204 12.1473 11.0246 12.2835 11.2288 12.3516L11.365 12.4196L11.4331 12.4877L12.318 13.0323C12.7945 13.3046 13.0668 13.4407 13.203 13.5769L13.4072 13.713C13.6795 13.8492 13.8837 13.9853 14.088 14.1215L14.156 14.1896C14.9729 13.3727 15.5856 12.4877 15.994 11.6028C16.5386 10.4455 16.6748 9.35631 16.6748 8.33521C16.6748 4.31885 13.4072 1.05131 9.39085 0.983232H9.25471H9.11856C5.23835 0.847084 2.03888 4.11463 2.03888 8.13099C2.03888 9.22017 2.2431 10.3093 2.71962 11.3985C3.40036 12.8962 4.62569 14.3257 6.32753 15.483C7.07634 15.9595 7.82516 16.436 8.64204 16.9125C8.71012 16.9806 8.77819 16.9806 8.91434 17.0487L10.2077 17.7975C10.3439 17.8655 10.48 17.9336 10.5481 18.0017L10.6843 18.0698C11.4331 18.4782 11.9096 18.7505 12.318 19.0909ZM5.57872 16.6402C5.17028 16.3679 4.76183 16.0956 4.42146 15.7553C4.35339 15.8914 4.28532 15.8914 4.21724 15.9595C3.12806 16.7764 2.17503 17.6613 1.49429 18.6824C0.609329 19.9758 0.132812 21.3373 0.132812 22.8349H3.94495C3.94495 21.5415 4.89798 20.1801 6.46368 19.0228C6.87212 18.7505 7.28057 18.4782 7.82516 18.1378L7.9613 18.0698L7.89323 18.0017C7.00827 17.5933 6.25946 17.1167 5.57872 16.6402Z" fill="#0540F7"/>
<path d="M30.4927 16.7072C30.4246 16.7072 30.3566 16.6392 30.2885 16.6392C30.2204 16.5711 30.1523 16.503 30.1523 16.3669V7.65342C30.1523 7.58534 30.2204 7.4492 30.2885 7.38112C30.3566 7.31305 30.4246 7.31305 30.4927 7.31305H31.718C31.8542 7.31305 31.9223 7.38112 31.9903 7.4492C32.0584 7.51727 32.1265 7.58535 32.1265 7.58535L34.5771 12.1463L37.0959 7.58535C37.0959 7.51727 37.1639 7.51727 37.232 7.4492C37.3001 7.38112 37.3682 7.31305 37.5043 7.31305H38.8658C38.9339 7.31305 39.07 7.38112 39.1381 7.38112C39.2062 7.38112 39.2062 7.51727 39.2062 7.65342V16.3669C39.2062 16.4349 39.1381 16.5711 39.1381 16.6392C39.07 16.7072 39.0019 16.7072 38.8658 16.7072H37.5043C37.4362 16.7072 37.3682 16.6392 37.3001 16.6392C37.232 16.5711 37.232 16.503 37.232 16.3669V10.921L35.4621 14.1204C35.394 14.1885 35.326 14.2566 35.2579 14.3247C35.1898 14.3927 35.1217 14.3927 34.9856 14.3927H34.3729C34.2368 14.3927 34.1687 14.3247 34.1006 14.3247C34.0326 14.2566 33.9645 14.1885 33.8964 14.1204L32.1946 10.921V16.3669C32.1946 16.4349 32.1265 16.5711 32.1265 16.6392C32.0584 16.7072 31.9903 16.7072 31.9223 16.7072H30.4927Z" fill="white"/>
<path d="M44.5169 16.8434C43.7 16.8434 43.0193 16.7072 42.4747 16.4349C41.862 16.1626 41.4536 15.7542 41.1132 15.2096C40.7729 14.665 40.6367 13.9843 40.6367 13.0993V7.65342C40.6367 7.58534 40.7048 7.4492 40.7048 7.38112C40.7729 7.31305 40.8409 7.31305 40.9771 7.31305H42.4747C42.5428 7.31305 42.6789 7.38112 42.747 7.38112C42.8151 7.38112 42.8151 7.51727 42.8151 7.65342V13.0993C42.8151 13.7801 42.9512 14.2566 43.2916 14.597C43.632 14.9373 44.0404 15.0735 44.585 15.0735C45.1296 15.0735 45.6061 14.9373 45.8784 14.597C46.2188 14.2566 46.3549 13.7801 46.3549 13.0993V7.65342C46.3549 7.58534 46.423 7.4492 46.4911 7.38112C46.5591 7.31305 46.6272 7.31305 46.6953 7.31305H48.1929C48.261 7.31305 48.3291 7.38112 48.3971 7.38112C48.4652 7.38112 48.4652 7.51727 48.4652 7.65342V13.0993C48.4652 13.9843 48.3291 14.665 47.9887 15.2096C47.6483 15.7542 47.2399 16.1626 46.6272 16.4349C46.0146 16.7072 45.3338 16.8434 44.5169 16.8434Z" fill="white"/>
<path d="M50.2329 16.7072C50.1649 16.7072 50.0287 16.6392 49.9607 16.6392C49.8926 16.5711 49.8926 16.503 49.8926 16.3669V7.65342C49.8926 7.58534 49.9607 7.4492 49.9607 7.38112C49.9607 7.31305 50.0968 7.31305 50.2329 7.31305H51.7306C51.7986 7.31305 51.9348 7.38112 52.0029 7.38112C52.0709 7.38112 52.0709 7.51727 52.0709 7.65342V14.9373H56.2234C56.2915 14.9373 56.4277 15.0054 56.4957 15.0054C56.5638 15.0735 56.5638 15.1415 56.5638 15.2096V16.3669C56.5638 16.4349 56.4957 16.5711 56.4957 16.6392C56.4277 16.7072 56.3596 16.7072 56.2234 16.7072H50.2329Z" fill="white"/>
<path d="M58.2664 16.7072C58.1984 16.7072 58.0622 16.6392 57.9942 16.6392C57.9261 16.503 57.9261 16.4349 57.9261 16.3669V9.15104H55.4754C55.4073 9.15104 55.3393 9.08297 55.2712 9.08297C55.2031 9.0149 55.2031 8.94682 55.2031 8.87875V7.65342C55.2031 7.58534 55.2712 7.4492 55.2712 7.38112C55.2712 7.31305 55.4073 7.31305 55.4754 7.31305H62.487C62.5551 7.31305 62.6912 7.38112 62.7593 7.38112C62.8274 7.38112 62.8274 7.51727 62.8274 7.65342V8.87875C62.8274 8.94682 62.7593 9.0149 62.7593 9.08297C62.7593 9.15104 62.6232 9.15104 62.487 9.15104H60.0364V16.3669C60.0364 16.4349 59.9683 16.5711 59.9683 16.6392C59.9002 16.7072 59.8321 16.7072 59.696 16.7072H58.2664Z" fill="white"/>
<path d="M64.5279 16.7072C64.4598 16.7072 64.3237 16.6392 64.2556 16.6392C64.1875 16.5711 64.1875 16.503 64.1875 16.3669V7.65342C64.1875 7.58534 64.2556 7.4492 64.2556 7.38112C64.2556 7.31305 64.3917 7.31305 64.5279 7.31305H66.0255C66.0936 7.31305 66.2297 7.38112 66.2978 7.38112C66.3659 7.38112 66.3659 7.51727 66.3659 7.65342V16.3669C66.3659 16.4349 66.2978 16.5711 66.2978 16.6392C66.2297 16.7072 66.1616 16.7072 66.0255 16.7072H64.5279Z" fill="white"/>
<path d="M68.2056 16.7072C68.1375 16.7072 68.0014 16.6392 67.9333 16.6392C67.8652 16.5711 67.8652 16.503 67.8652 16.3669V7.65342C67.8652 7.58534 67.9333 7.4492 67.9333 7.38112C67.9333 7.31305 68.0695 7.31305 68.2056 7.31305H69.7032C69.7713 7.31305 69.9074 7.38112 69.9755 7.38112C70.0436 7.38112 70.0436 7.51727 70.0436 7.65342V14.9373H74.1961C74.2642 14.9373 74.4003 15.0054 74.4684 15.0054C74.5365 15.0735 74.5365 15.1415 74.5365 15.2777V16.4349C74.5365 16.503 74.4684 16.6392 74.4684 16.7072C74.4003 16.7753 74.3323 16.7753 74.1961 16.7753L68.2056 16.7072Z" fill="white"/>
<path d="M79.3699 16.8437C78.553 16.8437 77.8722 16.7076 77.2596 16.4353C76.6469 16.163 76.2385 15.7546 75.8981 15.21C75.5577 14.6654 75.4216 13.9846 75.3535 13.1677C75.3535 12.7593 75.3535 12.4189 75.3535 12.0105C75.3535 11.602 75.3535 11.2617 75.3535 10.8532C75.3535 10.0363 75.5577 9.35561 75.8981 8.81102C76.2385 8.26643 76.715 7.85798 77.2596 7.58569C77.8722 7.31339 78.553 7.17725 79.3699 7.17725C80.1868 7.17725 80.8675 7.31339 81.4121 7.58569C82.0248 7.85798 82.5013 8.26643 82.8416 8.81102C83.182 9.35561 83.3862 10.0363 83.3862 10.8532C83.3862 11.2617 83.3862 11.602 83.3862 12.0105C83.3862 12.4189 83.3862 12.7593 83.3862 13.1677C83.3862 13.9846 83.182 14.6654 82.8416 15.21C82.5013 15.7546 82.0248 16.163 81.4802 16.4353C80.8675 16.7076 80.1187 16.8437 79.3699 16.8437ZM79.3699 15.0738C79.9145 15.0738 80.3229 14.9377 80.6633 14.5973C81.0036 14.2569 81.1398 13.7804 81.2079 13.0997C81.2079 12.6912 81.2079 12.3509 81.2079 12.0105C81.2079 11.6701 81.2079 11.3298 81.2079 10.9213C81.2079 10.4448 81.1398 10.1044 80.9356 9.76405C80.7994 9.49176 80.5952 9.28754 80.3229 9.08331C80.0506 8.94717 79.7783 8.87909 79.3699 8.87909C79.0295 8.87909 78.6891 8.94717 78.4168 9.08331C78.1445 9.21946 77.9403 9.42368 77.8042 9.76405C77.668 10.0363 77.5319 10.4448 77.5319 10.9213C77.5319 11.3298 77.5319 11.6701 77.5319 12.0105C77.5319 12.3509 77.5319 12.7593 77.5319 13.0997C77.5319 13.7804 77.7361 14.325 78.0765 14.5973C78.4168 14.9377 78.8253 15.0738 79.3699 15.0738Z" fill="white"/>
<path d="M88.3559 16.8425C87.539 16.8425 86.7902 16.7063 86.1776 16.434C85.5649 16.1618 85.1564 15.7533 84.8161 15.2087C84.4757 14.6641 84.3396 13.9834 84.2715 13.2346C84.2715 12.8261 84.2715 12.4177 84.2715 12.0092C84.2715 11.6008 84.2715 11.1243 84.2715 10.7839C84.2715 10.0351 84.4757 9.42244 84.8161 8.87785C85.1564 8.33326 85.633 7.92482 86.1776 7.65252C86.7902 7.38023 87.471 7.24408 88.2878 7.24408C88.9686 7.24408 89.5132 7.31215 90.0578 7.51637C90.6024 7.7206 91.0108 7.92482 91.2831 8.19711C91.6235 8.46941 91.8958 8.7417 92.0319 9.08207C92.2361 9.42244 92.3042 9.69474 92.3042 10.0351C92.3042 10.1032 92.3042 10.1713 92.2361 10.2393C92.168 10.3074 92.1 10.3074 92.0319 10.3074H90.3981C90.3301 10.3074 90.262 10.3074 90.1939 10.2393C90.1258 10.1713 90.1258 10.1713 90.0578 10.1032C89.9897 9.96703 89.9216 9.76281 89.7855 9.62666C89.6493 9.49052 89.4451 9.28629 89.2409 9.21822C89.0367 9.08207 88.6963 9.014 88.3559 9.014C87.8113 9.014 87.3348 9.15015 86.9944 9.42244C86.6541 9.69474 86.5179 10.1713 86.4499 10.852C86.4499 11.6008 86.4499 12.4177 86.4499 13.1665C86.4499 13.8472 86.6541 14.3918 86.9944 14.6641C87.3348 14.9364 87.8113 15.1406 88.3559 15.1406C88.6963 15.1406 89.0367 15.0726 89.309 14.9364C89.5813 14.8003 89.8535 14.5961 89.9897 14.3238C90.1939 14.0515 90.262 13.7111 90.262 13.2346V12.8942H88.7644C88.6963 12.8942 88.6282 12.8261 88.5601 12.7581C88.4921 12.69 88.4921 12.6219 88.4921 12.5538V11.6689C88.4921 11.6008 88.5601 11.4647 88.5601 11.3966C88.5601 11.3285 88.6963 11.3285 88.7644 11.3285H92.0319C92.1 11.3285 92.2361 11.3966 92.3042 11.3966C92.3723 11.3966 92.3723 11.5327 92.3723 11.6689V13.1665C92.3723 13.9153 92.2361 14.5961 91.8958 15.1406C91.5554 15.6852 91.0789 16.0937 90.4662 16.366C89.9216 16.6383 89.1728 16.8425 88.3559 16.8425Z" fill="white"/>
<path d="M93.938 16.7072C93.87 16.7072 93.7338 16.6392 93.6657 16.6392C93.5977 16.5711 93.5977 16.503 93.5977 16.3669V7.65342C93.5977 7.58534 93.6657 7.4492 93.6657 7.38112C93.6657 7.31305 93.8019 7.31305 93.938 7.31305H95.4357C95.5037 7.31305 95.6399 7.38112 95.7079 7.38112C95.776 7.38112 95.776 7.51727 95.776 7.65342V16.3669C95.776 16.4349 95.7079 16.5711 95.7079 16.6392C95.6399 16.7072 95.5718 16.7072 95.4357 16.7072H93.938Z" fill="white"/>
<path d="M97.6822 16.7063C97.6141 16.7063 97.4779 16.6383 97.4099 16.6383C97.3418 16.5702 97.3418 16.5021 97.3418 16.366V7.65252C97.3418 7.58445 97.4099 7.4483 97.4099 7.38023C97.4099 7.31215 97.546 7.31215 97.6822 7.31215H98.9075C99.0436 7.31215 99.1117 7.38023 99.1798 7.38023C99.2479 7.38023 99.3159 7.51637 99.3159 7.51637L102.924 13.0984V7.58445C102.924 7.51637 102.992 7.38023 102.992 7.31215C102.992 7.24408 103.128 7.24408 103.196 7.24408H104.558C104.626 7.24408 104.762 7.31215 104.83 7.31215C104.898 7.31215 104.898 7.4483 104.898 7.58445V16.2979C104.898 16.366 104.83 16.434 104.83 16.5021C104.762 16.5702 104.694 16.6383 104.558 16.6383H103.332C103.196 16.6383 103.128 16.5702 103.06 16.5021C102.992 16.434 102.924 16.366 102.924 16.366L99.384 10.9201V16.2298C99.384 16.2979 99.3159 16.434 99.3159 16.5021C99.3159 16.5702 99.1798 16.5702 99.0436 16.5702L97.6822 16.7063Z" fill="white"/>
</g>
<defs>
<clipPath id="clip0_2253_39402">
<rect width="104.834" height="23.1451" fill="white" transform="translate(0.0644531 0.234375)"/>
</clipPath>
</defs>
</svg>
