<svg width="74" height="22" viewBox="0 0 74 22" fill="none" xmlns="http://www.w3.org/2000/svg">
<path fill-rule="evenodd" clip-rule="evenodd" d="M45.8876 17.1905C41.6628 20.3045 35.5393 21.9659 30.267 21.9659C22.8744 21.9659 16.2191 19.2316 11.1841 14.6841C10.7887 14.3264 11.1431 13.8391 11.6177 14.1176C17.0514 17.2791 23.77 19.181 30.71 19.181C35.3905 19.181 40.5394 18.2127 45.2737 16.2031C45.9889 15.8993 46.587 16.6715 45.8876 17.1905Z" fill="#FF9900"/>
<path fill-rule="evenodd" clip-rule="evenodd" d="M47.6439 15.181C47.1059 14.4911 44.0741 14.855 42.7133 15.0164C42.2988 15.0671 42.2355 14.7063 42.6089 14.4468C45.0235 12.7474 48.9857 13.2379 49.4477 13.8076C49.9097 14.3804 49.3275 18.352 47.0584 20.2476C46.7103 20.5388 46.378 20.3837 46.533 19.9976C47.0426 18.7254 48.185 15.8741 47.6439 15.181Z" fill="#FF9900"/>
<path fill-rule="evenodd" clip-rule="evenodd" d="M42.8084 2.44909V0.797176C42.8084 0.547156 42.9983 0.379434 43.2261 0.379434H50.6219C50.8592 0.379434 51.0491 0.550282 51.0491 0.797176V2.21172C51.0459 2.44909 50.8466 2.75924 50.4922 3.24975L46.6598 8.72139C48.0839 8.68664 49.587 8.89864 50.8782 9.62652C51.1694 9.79105 51.2485 10.0316 51.2706 10.2689V12.0316C51.2706 12.2721 51.0048 12.5538 50.7263 12.4082C48.4509 11.2152 45.4287 11.0854 42.9128 12.4209C42.6565 12.5602 42.3875 12.2816 42.3875 12.0412V10.3671C42.3875 10.0981 42.3906 9.63917 42.6596 9.23096L47.0996 2.86371H43.2356C42.9983 2.86371 42.8084 2.69599 42.8084 2.44909ZM15.8299 12.7563H13.5798C13.3646 12.7405 13.1937 12.5791 13.1779 12.3734V0.825674C13.1779 0.59463 13.3709 0.411059 13.6114 0.411059H15.7096C15.928 0.42051 16.102 0.588305 16.1178 0.797103V2.30674H16.159C16.7064 0.847848 17.7349 0.16751 19.1211 0.16751C20.5293 0.16751 21.4091 0.847848 22.0421 2.30674C22.5864 0.847848 23.8237 0.16751 25.1497 0.16751C26.0927 0.16751 27.1245 0.556752 27.7542 1.43019C28.4662 2.40169 28.3207 3.81311 28.3207 5.05049L28.3175 12.3386C28.3175 12.5697 28.1245 12.7564 27.884 12.7564H25.6371C25.4124 12.7406 25.232 12.5602 25.232 12.3386V6.21822C25.232 5.73083 25.2763 4.51555 25.1687 4.05361C25.001 3.27825 24.4978 3.05986 23.8458 3.05986C23.3015 3.05986 22.7319 3.4238 22.5009 4.00614C22.2699 4.58847 22.2921 5.56311 22.2921 6.21822V12.3386C22.2921 12.5696 22.099 12.7563 21.8585 12.7563H19.6116C19.3837 12.7405 19.2065 12.5602 19.2065 12.3386L19.2034 6.21822C19.2034 4.93017 19.4154 3.03463 17.8172 3.03463C16.2001 3.03463 16.2634 4.88269 16.2634 6.21822V12.3386C16.2634 12.5696 16.0704 12.7563 15.8299 12.7563ZM57.4164 0.167437C60.755 0.167437 62.5621 3.03456 62.5621 6.68023C62.5621 10.2025 60.5652 12.9969 57.4163 12.9969C54.1378 12.9969 52.3529 10.1297 52.3529 6.55679C52.3529 2.96178 54.1599 0.167437 57.4164 0.167437ZM57.4353 2.52507C55.777 2.52507 55.6726 4.78462 55.6726 6.19284C55.6726 7.60434 55.6505 10.617 57.4164 10.617C59.1601 10.617 59.2423 8.1866 59.2423 6.70553C59.2423 5.73083 59.2012 4.56623 58.9069 3.64219C58.6537 2.83834 58.1505 2.52507 57.4353 2.52507ZM66.8913 12.7563H64.6507C64.4261 12.7405 64.2456 12.5602 64.2456 12.3386L64.2425 0.787652C64.2614 0.575655 64.4482 0.411059 64.676 0.411059H66.7615C66.9577 0.42051 67.1191 0.553554 67.1634 0.733853V2.49977H67.2046C67.8344 0.920622 68.7173 0.167437 70.2711 0.167437C71.2806 0.167437 72.2649 0.531307 72.8978 1.52819C73.4864 2.45222 73.4864 4.00614 73.4864 5.12326V12.3924C73.4611 12.5949 73.2744 12.7563 73.0529 12.7563H70.7964C70.5907 12.7405 70.4199 12.5886 70.3977 12.3924V6.12007C70.3977 4.85739 70.5433 3.00918 68.9895 3.00918C68.442 3.00918 67.9388 3.37633 67.6888 3.93329C67.3723 4.63907 67.3311 5.34159 67.3311 6.12014V12.3386C67.328 12.5696 67.1318 12.7563 66.8913 12.7563ZM36.9127 7.2404C36.9127 8.11695 36.9348 8.84804 36.4917 9.62645C36.1342 10.2595 35.5646 10.6486 34.9347 10.6486C34.0708 10.6486 33.5645 9.99047 33.5645 9.01889C33.5645 7.1011 35.2829 6.75301 36.9127 6.75301V7.2404ZM39.1817 12.7247C39.033 12.8576 38.8178 12.8671 38.6501 12.7785C37.9032 12.1582 37.7671 11.8702 37.3589 11.2784C36.1246 12.538 35.2481 12.9146 33.6499 12.9146C31.7543 12.9146 30.2827 11.7468 30.2827 9.4082C30.2827 7.58216 31.2701 6.33846 32.6815 5.73083C33.9031 5.19284 35.6088 5.09789 36.9127 4.94914V4.65805C36.9127 4.12318 36.9538 3.49025 36.6373 3.02823C36.3652 2.61369 35.8398 2.44277 35.3747 2.44277C34.517 2.44277 33.7544 2.88261 33.5677 3.79407C33.5296 3.99661 33.3809 4.19596 33.1752 4.20548L30.9948 3.97131C30.8113 3.93016 30.6055 3.78142 30.6593 3.49977C31.1594 0.854173 33.5518 0.0566406 35.6912 0.0566406C36.7862 0.0566406 38.2166 0.347809 39.0805 1.17697C40.1754 2.19915 40.071 3.56302 40.071 5.04729V8.55367C40.071 9.60755 40.5078 10.0695 40.9191 10.6392C41.0616 10.8417 41.0932 11.0854 40.9097 11.2373C40.4508 11.6202 39.6343 12.3322 39.1849 12.731L39.1818 12.7247M7.41507 7.2404C7.41507 8.11695 7.43725 8.84804 6.99413 9.62645C6.63659 10.2595 6.0701 10.6486 5.43716 10.6486C4.57325 10.6486 4.07002 9.99047 4.07002 9.01889C4.07002 7.1011 5.78846 6.75301 7.41507 6.75301V7.2404ZM9.68408 12.7247C9.5354 12.8576 9.32021 12.8671 9.15249 12.7785C8.40563 12.1582 8.27266 11.8702 7.86131 11.2784C6.62706 12.538 5.7537 12.9146 4.15231 12.9146C2.2599 12.9146 0.785156 11.7468 0.785156 9.4082C0.785156 7.58216 1.77571 6.33846 3.18393 5.73083C4.40553 5.19284 6.11125 5.09789 7.41507 4.94914V4.65805C7.41507 4.12318 7.45622 3.49025 7.14288 3.02823C6.86756 2.61369 6.34229 2.44277 5.8802 2.44277C5.02262 2.44277 4.25679 2.88261 4.07002 3.79407C4.03207 3.99661 3.88332 4.19596 3.68077 4.20548L1.49719 3.97131C1.31362 3.93016 1.11115 3.78142 1.16175 3.49977C1.66491 0.854173 4.05424 0.0566406 6.19355 0.0566406C7.28843 0.0566406 8.7189 0.347809 9.58288 1.17697C10.6778 2.19915 10.5734 3.56302 10.5734 5.04729V8.55367C10.5734 9.60755 11.0101 10.0695 11.4215 10.6392C11.5671 10.8417 11.5987 11.0854 11.4152 11.2373C10.9563 11.6202 10.1398 12.3322 9.69048 12.731L9.68408 12.7247Z" fill="white"/>
</svg>
