<svg width="65" height="64" viewBox="0 0 65 64" fill="none" xmlns="http://www.w3.org/2000/svg">
<path d="M0.5 11.2941C0.5 5.05655 5.55655 0 11.7941 0H53.2059C59.4435 0 64.5 5.05655 64.5 11.2941V52.7059C64.5 58.9435 59.4435 64 53.2059 64H11.7941C5.55655 64 0.5 58.9435 0.5 52.7059V11.2941Z" fill="url(#paint0_linear_239_9666)"/>
<path d="M0.5 11.2941C0.5 5.05655 5.55655 0 11.7941 0H53.2059C59.4435 0 64.5 5.05655 64.5 11.2941V52.7059C64.5 58.9435 59.4435 64 53.2059 64H11.7941C5.55655 64 0.5 58.9435 0.5 52.7059V11.2941Z" fill="url(#paint1_linear_239_9666)" fill-opacity="0.2"/>
<path d="M16.666 22.5L27.6116 28.7019C31.6469 30.9883 33.3518 30.9883 37.3871 28.7019L48.3327 22.5" stroke="white" stroke-width="2.375" stroke-linejoin="round"/>
<path d="M16.691 34.3357C16.7945 39.1896 16.8462 41.6164 18.6372 43.4142C20.4281 45.212 22.9207 45.2745 27.9058 45.3997C30.9782 45.477 34.0205 45.477 37.0929 45.3997C42.078 45.2745 44.5705 45.212 46.3616 43.4142C48.1525 41.6164 48.2043 39.1896 48.3077 34.3357C48.3411 32.775 48.3411 31.2237 48.3077 29.663C48.2043 24.8092 48.1525 22.3823 46.3616 20.5846C44.5705 18.7868 42.078 18.7242 37.0929 18.5989C34.0205 18.5217 30.9782 18.5217 27.9058 18.5989C22.9207 18.7241 20.4281 18.7868 18.6372 20.5845C16.8462 22.3823 16.7945 24.8092 16.691 29.663C16.6577 31.2237 16.6577 32.775 16.691 34.3357Z" stroke="white" stroke-width="2.375" stroke-linejoin="round"/>
<defs>
<linearGradient id="paint0_linear_239_9666" x1="32.5" y1="0" x2="32.5" y2="64" gradientUnits="userSpaceOnUse">
<stop stop-color="#1675FF"/>
<stop offset="1" stop-color="#0752BE"/>
</linearGradient>
<linearGradient id="paint1_linear_239_9666" x1="64.5" y1="32" x2="0.5" y2="32" gradientUnits="userSpaceOnUse">
<stop stop-color="white" stop-opacity="0"/>
<stop offset="1" stop-color="white"/>
</linearGradient>
</defs>
</svg>
