<svg width="65" height="64" viewBox="0 0 65 64" fill="none" xmlns="http://www.w3.org/2000/svg">
<path d="M0.5 11.2941C0.5 5.05655 5.55655 0 11.7941 0H53.2059C59.4435 0 64.5 5.05655 64.5 11.2941V52.7059C64.5 58.9435 59.4435 64 53.2059 64H11.7941C5.55655 64 0.5 58.9435 0.5 52.7059V11.2941Z" fill="url(#paint0_linear_239_9444)"/>
<path d="M0.5 11.2941C0.5 5.05655 5.55655 0 11.7941 0H53.2059C59.4435 0 64.5 5.05655 64.5 11.2941V52.7059C64.5 58.9435 59.4435 64 53.2059 64H11.7941C5.55655 64 0.5 58.9435 0.5 52.7059V11.2941Z" fill="url(#paint1_linear_239_9444)" fill-opacity="0.2"/>
<path d="M38.3754 47.6764C36.1407 47.7795 33.8705 47.8333 31.3706 47.8333C28.8706 47.8333 26.6004 47.7795 24.3656 47.6764C21.7097 47.5539 19.5273 45.4821 19.1725 42.8374C18.941 41.1116 18.75 39.3429 18.75 37.5417C18.75 35.7405 18.9409 33.9717 19.1725 32.2459C19.5273 29.6013 21.7097 27.5294 24.3656 27.4069C26.6004 27.3038 28.8706 27.25 31.3706 27.25C33.8705 27.25 36.1407 27.3038 38.3754 27.4069C40.053 27.4843 41.5415 28.3393 42.5 29.625" stroke="white" stroke-width="2.375" stroke-linecap="round"/>
<path d="M40.917 36.7158C40.917 34.9862 42.3347 33.584 44.0837 33.584C45.8326 33.584 47.2503 34.9862 47.2503 36.7158C47.2503 37.3393 47.0662 37.9203 46.7486 38.4082C45.8022 39.8629 44.0837 41.2499 44.0837 42.9796V43.7626M44.0837 47.834H44.1027" stroke="white" stroke-width="2.375" stroke-linecap="round" stroke-linejoin="round"/>
<path d="M24.292 27.2493V23.291C24.292 19.356 27.482 16.166 31.417 16.166C35.3521 16.166 38.542 19.356 38.542 23.291V27.2493" stroke="white" stroke-width="2.375" stroke-linecap="round" stroke-linejoin="round"/>
<path d="M33 37.5254V37.5405" stroke="white" stroke-width="3.16667" stroke-linecap="round" stroke-linejoin="round"/>
<path d="M26.667 37.5273V37.5424" stroke="white" stroke-width="3.16667" stroke-linecap="round" stroke-linejoin="round"/>
<defs>
<linearGradient id="paint0_linear_239_9444" x1="32.5" y1="0" x2="32.5" y2="64" gradientUnits="userSpaceOnUse">
<stop stop-color="#1675FF"/>
<stop offset="1" stop-color="#0752BE"/>
</linearGradient>
<linearGradient id="paint1_linear_239_9444" x1="64.5" y1="32" x2="0.5" y2="32" gradientUnits="userSpaceOnUse">
<stop stop-color="white" stop-opacity="0"/>
<stop offset="1" stop-color="white"/>
</linearGradient>
</defs>
</svg>
