<svg width="80" height="27" viewBox="0 0 80 27" fill="none" xmlns="http://www.w3.org/2000/svg">
<path d="M33.8304 13.694C33.8304 17.438 30.9015 20.1969 27.3071 20.1969C23.7126 20.1969 20.7837 17.438 20.7837 13.694C20.7837 9.92365 23.7126 7.19116 27.3071 7.19116C30.9015 7.19116 33.8304 9.92365 33.8304 13.694ZM30.9748 13.694C30.9748 11.3544 29.2773 9.7536 27.3071 9.7536C25.3369 9.7536 23.6393 11.3544 23.6393 13.694C23.6393 16.0102 25.3369 17.6344 27.3071 17.6344C29.2773 17.6344 30.9748 16.0072 30.9748 13.694Z" fill="#fff"/>
<path d="M47.9037 13.694C47.9037 17.438 44.9748 20.1969 41.3803 20.1969C37.7859 20.1969 34.8569 17.438 34.8569 13.694C34.8569 9.92658 37.7859 7.19116 41.3803 7.19116C44.9748 7.19116 47.9037 9.92365 47.9037 13.694ZM45.0481 13.694C45.0481 11.3544 43.3505 9.7536 41.3803 9.7536C39.4101 9.7536 37.7126 11.3544 37.7126 13.694C37.7126 16.0102 39.4101 17.6344 41.3803 17.6344C43.3505 17.6344 45.0481 16.0072 45.0481 13.694Z" fill="#fff"/>
<path d="M61.3901 7.58403V19.2587C61.3901 24.061 58.5579 26.0225 55.2097 26.0225C52.058 26.0225 50.1611 23.9145 49.4457 22.1905L51.9319 21.1556C52.3746 22.214 53.4594 23.4629 55.2068 23.4629C57.35 23.4629 58.6781 22.1407 58.6781 19.6515V18.7163H58.5784C57.9393 19.5049 56.7079 20.1939 55.154 20.1939C51.9026 20.1939 48.9238 17.3618 48.9238 13.7175C48.9238 10.0468 51.9026 7.19116 55.154 7.19116C56.705 7.19116 57.9363 7.88015 58.5784 8.64536H58.6781V7.58696H61.3901V7.58403ZM58.8804 13.7175C58.8804 11.4277 57.3529 9.7536 55.4091 9.7536C53.4389 9.7536 51.7882 11.4277 51.7882 13.7175C51.7882 15.9838 53.4389 17.6344 55.4091 17.6344C57.3529 17.6344 58.8804 15.9838 58.8804 13.7175Z" fill="#fff"/>
<path d="M65.8609 0.740967V19.798H63.0757V0.740967H65.8609Z" fill="#fff"/>
<path d="M76.7151 15.8345L78.9316 17.3122C78.2163 18.3706 76.4923 20.1942 73.5136 20.1942C69.8194 20.1942 67.0605 17.3386 67.0605 13.6913C67.0605 9.82421 69.8429 7.18848 73.194 7.18848C76.5685 7.18848 78.2192 9.87405 78.7586 11.3253L79.0548 12.0641L70.3618 15.6645C71.0273 16.9691 72.0623 17.6347 73.5136 17.6347C74.9678 17.6347 75.9763 16.9193 76.7151 15.8345ZM69.8927 13.4949L75.7036 11.082C75.3841 10.2699 74.4224 9.70401 73.2907 9.70401C71.8395 9.70401 69.8194 10.9852 69.8927 13.4949Z" fill="#fff"/>
<path d="M10.241 12.003V9.24413H19.5379C19.6288 9.72496 19.6757 10.2937 19.6757 10.9094C19.6757 12.9793 19.1098 15.5388 17.2862 17.3624C15.5124 19.2095 13.2461 20.1946 10.2439 20.1946C4.67924 20.1946 0 15.662 0 10.0973C0 4.53264 4.67924 0 10.2439 0C13.3223 0 15.5154 1.20792 17.1631 2.78233L15.2163 4.72908C14.0348 3.62084 12.434 2.75887 10.241 2.75887C6.17742 2.75887 2.99929 6.03375 2.99929 10.0973C2.99929 14.1608 6.17742 17.4357 10.241 17.4357C12.8767 17.4357 14.3778 16.3773 15.3395 15.4157C16.1193 14.6358 16.6324 13.5217 16.8347 12.0001L10.241 12.003Z" fill="#fff"/>
</svg>
