<svg width="101" height="23" viewBox="0 0 101 23" fill="none" xmlns="http://www.w3.org/2000/svg">
<path fill-rule="evenodd" clip-rule="evenodd" d="M1.01953 11.6982C1.01953 6.76187 5.02854 2.76025 9.974 2.76025C12.8888 2.76025 15.7348 4.62188 17.2786 6.49283L24.0293 14.6934C25.1248 16.0232 27.05 17.1412 28.6215 17.1412C31.6332 17.1412 34.0745 14.7043 34.0745 11.6982C34.0745 8.69211 31.6332 6.25527 28.6215 6.25527C27.0515 6.25527 25.1146 7.38367 24.0171 8.71772L22.8313 10.1582L20.5894 7.37644L21.3111 6.49978C22.8562 4.62188 25.7033 2.76025 28.6215 2.76025C33.5669 2.76025 37.576 6.76187 37.576 11.6982C37.576 16.6345 33.5669 20.6361 28.6215 20.6361C25.7074 20.6361 22.8717 18.7913 21.3245 16.9129L19.1298 14.2468V20.851H16.066V18.1379C14.4632 19.5203 12.243 20.6361 9.974 20.6361C5.02854 20.6361 1.01953 16.6345 1.01953 11.6982ZM14.5759 8.71487L17.4733 12.2345H10.4286V15.2926H14.0031C12.8851 16.3433 11.3048 17.1412 9.974 17.1412C6.96232 17.1412 4.521 14.7043 4.521 11.6982C4.521 8.69211 6.96232 6.25527 9.974 6.25527C11.5395 6.25527 13.4762 7.38287 14.575 8.71372L14.5759 8.71487Z" fill="#00A987"/>
<path d="M52.1276 10.4713H57.6126V11.3152C57.6126 12.8779 57.1125 14.1436 56.1124 15.1125C55.1123 16.0813 53.8205 16.5658 52.237 16.5658C50.5493 16.5658 49.1481 16.0188 48.0334 14.925C46.9291 13.8207 46.377 12.4768 46.377 10.8933C46.377 9.29933 46.9239 7.95019 48.0178 6.84592C49.122 5.74163 50.4868 5.18948 52.112 5.18948C53.1225 5.18948 54.0497 5.41868 54.8935 5.87706C55.7374 6.33545 56.3989 6.95531 56.8781 7.73665L55.0342 8.79927C54.7738 8.35133 54.3779 7.98668 53.8465 7.70539C53.3152 7.42411 52.7318 7.28347 52.0963 7.28347C51.0441 7.28347 50.1847 7.62726 49.5179 8.31484C48.8512 8.98156 48.5178 9.84103 48.5178 10.8933C48.5178 11.9246 48.8564 12.7789 49.5336 13.456C50.2107 14.1228 51.1171 14.4562 52.2526 14.4562C53.0756 14.4562 53.7632 14.2739 54.3153 13.9092C54.8675 13.5446 55.2426 13.0341 55.4405 12.3778H52.1276V10.4713ZM65.0303 15.3781C64.2385 16.1699 63.2592 16.5658 62.0924 16.5658C60.9257 16.5658 59.9463 16.1699 59.1546 15.3781C58.3629 14.5864 57.967 13.6071 57.967 12.4403C57.967 11.2839 58.3629 10.3098 59.1546 9.5181C59.9568 8.7159 60.9361 8.31484 62.0924 8.31484C63.2488 8.31484 64.2281 8.7159 65.0303 9.5181C65.8325 10.3203 66.2335 11.2943 66.2335 12.4403C66.2335 13.5967 65.8325 14.5759 65.0303 15.3781ZM60.5766 13.9874C60.9829 14.3936 61.4882 14.5968 62.0924 14.5968C62.6967 14.5968 63.2019 14.3936 63.6082 13.9874C64.0145 13.5811 64.2177 13.0654 64.2177 12.4403C64.2177 11.8152 64.0145 11.2996 63.6082 10.8933C63.2019 10.487 62.6967 10.2838 62.0924 10.2838C61.4882 10.2838 60.9829 10.487 60.5766 10.8933C60.1807 11.3099 59.9828 11.8256 59.9828 12.4403C59.9828 13.055 60.1807 13.5707 60.5766 13.9874ZM68.9882 16.347H66.9722V4.93945H68.9882V16.347ZM76.8104 15.3781C76.0189 16.1699 75.0398 16.5658 73.8726 16.5658C72.706 16.5658 71.727 16.1699 70.9347 15.3781C70.1432 14.5864 69.7471 13.6071 69.7471 12.4403C69.7471 11.2839 70.1432 10.3098 70.9347 9.5181C71.7371 8.7159 72.7162 8.31484 73.8726 8.31484C75.029 8.31484 76.0087 8.7159 76.8104 9.5181C77.6128 10.3203 78.0137 11.2943 78.0137 12.4403C78.0137 13.5967 77.6128 14.5759 76.8104 15.3781ZM72.3568 13.9874C72.7631 14.3936 73.2686 14.5968 73.8726 14.5968C74.4773 14.5968 74.9821 14.3936 75.3884 13.9874C75.7947 13.5811 75.9978 13.0654 75.9978 12.4403C75.9978 11.8152 75.7947 11.2996 75.3884 10.8933C74.9821 10.487 74.4773 10.2838 73.8726 10.2838C73.2686 10.2838 72.7631 10.487 72.3568 10.8933C71.9614 11.3099 71.763 11.8256 71.763 12.4403C71.763 13.055 71.9614 13.5707 72.3568 13.9874ZM84.7379 9.50247V8.53361H86.7069V15.972C86.7069 17.17 86.3054 18.092 85.5036 18.7379C84.7114 19.3734 83.7534 19.6911 82.6283 19.6911C80.8571 19.6911 79.6225 19.0557 78.9248 17.7847L80.6437 16.8002C81.029 17.5294 81.7111 17.894 82.6908 17.894C83.3261 17.894 83.8261 17.7274 84.191 17.394C84.5552 17.0606 84.7379 16.5866 84.7379 15.972V15.1281C84.1441 15.9198 83.3105 16.3157 82.2376 16.3157C81.1329 16.3157 80.2062 15.9303 79.4561 15.1594C78.7162 14.3676 78.3466 13.4196 78.3466 12.3153C78.3466 11.211 78.7216 10.2682 79.4717 9.48685C80.2218 8.70551 81.1438 8.31484 82.2376 8.31484C83.3105 8.31484 84.1441 8.71074 84.7379 9.50247ZM84.1129 13.8623C84.5293 13.456 84.7379 12.9404 84.7379 12.3153C84.7379 11.6902 84.5293 11.1849 84.1129 10.7995C83.7066 10.3932 83.1854 10.1901 82.5502 10.1901C81.9251 10.1901 81.3986 10.3932 80.9719 10.7995C80.5656 11.1849 80.3624 11.6902 80.3624 12.3153C80.3624 12.9404 80.5656 13.456 80.9719 13.8623C81.3884 14.2582 81.9142 14.4562 82.5502 14.4562C83.1854 14.4562 83.7066 14.2582 84.1129 13.8623ZM88.8552 7.596C88.5223 7.596 88.2302 7.4762 87.9801 7.23659C87.741 6.98656 87.6207 6.69486 87.6207 6.36149C87.6207 6.02812 87.741 5.73642 87.9801 5.48639C88.2302 5.23636 88.5223 5.11135 88.8552 5.11135C89.199 5.11135 89.4912 5.23636 89.7303 5.48639C89.9804 5.73642 90.1054 6.02812 90.1054 6.36149C90.1054 6.69486 89.9804 6.98656 89.7303 7.23659C89.4912 7.4762 89.199 7.596 88.8552 7.596ZM89.871 16.347H87.8551V8.53361H89.871V16.347ZM95.3811 8.31484C96.2453 8.31484 96.9485 8.60135 97.4907 9.17431C98.0533 9.75773 98.3346 10.5495 98.3346 11.5496V16.347H96.3187V11.7996C96.3187 11.2892 96.1781 10.8933 95.8968 10.612C95.6257 10.3307 95.2507 10.1901 94.7717 10.1901C94.2404 10.1901 93.8184 10.3567 93.5059 10.6901C93.2036 11.013 93.0527 11.4923 93.0527 12.1278V16.347H91.0369V8.53361H93.0527V9.40871C93.5317 8.67949 94.3076 8.31484 95.3811 8.31484Z" fill="white"/>
</svg>
