<svg width="65" height="64" viewBox="0 0 65 64" fill="none" xmlns="http://www.w3.org/2000/svg">
<path fill-rule="evenodd" clip-rule="evenodd" d="M11.7941 0C5.55655 0 0.5 5.05655 0.5 11.2941V52.7059C0.5 58.9435 5.55655 64 11.7941 64H53.2059C59.4435 64 64.5 58.9435 64.5 52.7059V11.2941C64.5 5.05655 59.4435 0 53.2059 0H11.7941ZM23.1451 11.068L20.4485 17.6408H42.7422C43.0459 17.6408 43.3507 17.6799 43.6265 17.8069C44.5703 18.2415 45.897 19.2741 45.897 21.0114C45.897 22.7488 44.5703 23.7814 43.6265 24.216C43.3507 24.343 43.0459 24.3821 42.7422 24.3821H32.2458L29.2122 31.2919H43.3913C43.9371 31.2919 44.4842 31.2537 45.0082 31.1013C47.9028 30.2594 52.4697 27.3969 52.4697 21.0114C52.4697 14.0005 46.7396 11.4613 43.8746 11.068H23.1451ZM24.1877 19.6029H31.6031L26.0415 33.0856H46.2654L23.8506 55.6689L30.0863 39.8269H15.761L24.1877 19.6029Z" fill="url(#paint0_linear_239_9133)"/>
<path fill-rule="evenodd" clip-rule="evenodd" d="M11.7941 0C5.55655 0 0.5 5.05655 0.5 11.2941V52.7059C0.5 58.9435 5.55655 64 11.7941 64H53.2059C59.4435 64 64.5 58.9435 64.5 52.7059V11.2941C64.5 5.05655 59.4435 0 53.2059 0H11.7941ZM23.1451 11.068L20.4485 17.6408H42.7422C43.0459 17.6408 43.3507 17.6799 43.6265 17.8069C44.5703 18.2415 45.897 19.2741 45.897 21.0114C45.897 22.7488 44.5703 23.7814 43.6265 24.216C43.3507 24.343 43.0459 24.3821 42.7422 24.3821H32.2458L29.2122 31.2919H43.3913C43.9371 31.2919 44.4842 31.2537 45.0082 31.1013C47.9028 30.2594 52.4697 27.3969 52.4697 21.0114C52.4697 14.0005 46.7396 11.4613 43.8746 11.068H23.1451ZM24.1877 19.6029H31.6031L26.0415 33.0856H46.2654L23.8506 55.6689L30.0863 39.8269H15.761L24.1877 19.6029Z" fill="url(#paint1_linear_239_9133)" fill-opacity="0.2"/>
<defs>
<linearGradient id="paint0_linear_239_9133" x1="32.5" y1="0" x2="32.5" y2="64" gradientUnits="userSpaceOnUse">
<stop stop-color="#1675FF"/>
<stop offset="1" stop-color="#0752BE"/>
</linearGradient>
<linearGradient id="paint1_linear_239_9133" x1="64.5" y1="32" x2="0.5" y2="32" gradientUnits="userSpaceOnUse">
<stop stop-color="white" stop-opacity="0"/>
<stop offset="1" stop-color="white"/>
</linearGradient>
</defs>
</svg>
