<svg width="127" height="23" viewBox="0 0 127 23" fill="none" xmlns="http://www.w3.org/2000/svg">
<g clip-path="url(#clip0_2253_39292)">
<path d="M33.7102 16.8764C36.2237 16.8764 38.1372 15.0537 38.1372 12.5196C38.1372 9.98538 36.2237 8.16272 33.7102 8.16272C31.1967 8.16272 29.2969 10.0137 29.2969 12.5196C29.2969 15.0254 31.1967 16.8764 33.7102 16.8764ZM33.7102 15.2101C32.2103 15.2101 31.082 14.0852 31.082 12.5186C31.082 10.9521 32.2103 9.81344 33.7102 9.81344C35.21 9.81344 36.3383 10.9237 36.3383 12.5186C36.3383 14.1136 35.2247 15.2101 33.7102 15.2101Z" fill="white"/>
<path d="M43.631 16.8752C45.6876 16.8752 47.3013 15.6506 47.8012 13.8426L46.1445 13.3441C45.8592 14.4544 44.8877 15.1806 43.6879 15.1806C42.1743 15.1806 41.046 14.041 41.046 12.5037C41.046 10.9664 42.189 9.81222 43.6879 9.81222C44.8309 9.81222 45.7876 10.467 46.1582 11.5068L47.7434 10.9087C47.1297 9.25711 45.572 8.16058 43.6301 8.16058C41.145 8.16058 39.2168 10.0116 39.2168 12.5174C39.2168 15.0232 41.145 16.8742 43.6301 16.8742L43.631 16.8752Z" fill="white"/>
<path d="M52.5106 15.1387C51.6823 15.1387 51.3254 15.039 51.3254 14.2132L51.3401 10.4481H52.5537V8.88145H51.3401V6.73779H49.5688V8.88145H48.6973V10.4481H49.5688V14.2416C49.5688 16.2069 50.6686 16.7044 52.2391 16.7044H52.6244V15.1378H52.5097L52.5106 15.1387Z" fill="white"/>
<path d="M57.9896 16.8764C60.5027 16.8764 62.4164 15.0537 62.4164 12.5196C62.4164 9.98538 60.5027 8.16272 57.9896 8.16272C55.4759 8.16272 53.5762 10.0137 53.5762 12.5196C53.5762 15.0254 55.4759 16.8764 57.9896 16.8764ZM57.9896 15.2101C56.4893 15.2101 55.3611 14.0852 55.3611 12.5186C55.3611 10.9521 56.4893 9.81344 57.9896 9.81344C59.4893 9.81344 60.6175 10.9237 60.6175 12.5186C60.6175 14.1136 59.504 15.2101 57.9896 15.2101Z" fill="white"/>
<path d="M71.71 8.16173C70.5965 8.16173 69.6397 8.60343 69.025 9.31494V6.73779H67.2402V16.7044H68.9401V15.6078C69.5254 16.3907 70.5111 16.8754 71.71 16.8754C74.11 16.8754 75.9665 15.039 75.9665 12.5186C75.9665 9.9981 74.11 8.16173 71.71 8.16173ZM71.525 15.1954C70.0253 15.1954 68.8966 14.0559 68.8966 12.4902C68.8966 10.9245 70.0253 9.79874 71.525 9.79874C73.0248 9.79874 74.1382 10.9382 74.1382 12.4902C74.1382 14.0422 73.0101 15.1954 71.525 15.1954Z" fill="white"/>
<path d="M81.7008 8.24835C80.5155 8.24835 79.6011 8.71845 79.1012 9.57263V8.33343H77.416V16.706H79.1872V12.8476C79.1872 10.4552 80.4301 9.9997 81.6725 9.9997H81.7721V8.24835H81.7008Z" fill="white"/>
<path d="M86.6866 16.8764C89.2008 16.8764 91.1145 15.0537 91.1145 12.5196C91.1145 9.98538 89.2008 8.16272 86.6866 8.16272C84.1719 8.16272 82.2734 10.0137 82.2734 12.5196C82.2734 15.0254 84.173 16.8764 86.6866 16.8764ZM86.6866 15.2101C85.1864 15.2101 84.0582 14.0852 84.0582 12.5186C84.0582 10.9521 85.1864 9.81344 86.6866 9.81344C88.1863 9.81344 89.3145 10.9237 89.3145 12.5186C89.3145 14.1136 88.1999 15.2101 86.6866 15.2101Z" fill="white"/>
<path d="M100.259 14.9105L98.8731 9.31446C98.7447 8.731 98.3449 8.24628 97.6448 8.24628C96.9453 8.24628 96.5737 8.73008 96.4312 9.29983L95.0022 14.8812L93.4171 8.33135H91.6035L93.4884 15.3221C93.7315 16.2329 94.1025 16.8027 94.9179 16.8027C95.7333 16.8027 96.1173 16.2329 96.3311 15.2937L97.6029 10.4814L98.8731 15.2937C99.1026 16.2339 99.4877 16.8027 100.303 16.8027C101.117 16.8027 101.488 16.2329 101.731 15.3221L103.616 8.33135H101.874L100.259 14.9096L100.259 14.9105Z" fill="white"/>
<path d="M107.449 16.8764C109.192 16.8764 110.348 15.8942 110.348 14.3139C110.348 12.9046 109.306 12.1071 107.992 11.7367C106.678 11.3663 106.264 11.1532 106.264 10.5122C106.264 10.0137 106.692 9.60129 107.349 9.60129C107.963 9.60129 108.449 10.0137 108.492 10.7115H110.248C110.119 9.1312 109.034 8.16272 107.349 8.16272C105.664 8.16272 104.506 9.21627 104.506 10.6256C104.506 12.0349 105.492 12.8323 106.778 13.1881C108.063 13.5301 108.606 13.7295 108.606 14.4556C108.606 15.0107 108.148 15.4241 107.463 15.4241C106.778 15.4241 106.25 14.9687 106.178 14.1995H104.422C104.522 15.8796 105.722 16.8764 107.449 16.8764Z" fill="white"/>
<path d="M120.249 12.5037C120.249 9.99788 118.378 8.16058 115.85 8.16058C113.322 8.16058 111.451 10.0829 111.451 12.5174C111.451 14.9519 113.365 16.8742 115.908 16.8742C117.321 16.8742 118.664 16.2908 119.578 15.1375L118.178 14.1407C117.635 14.8385 116.864 15.2226 115.95 15.2226C114.55 15.2226 113.48 14.3254 113.251 13.0442H120.206C120.236 12.8302 120.249 12.6884 120.249 12.5028V12.5037ZM113.351 11.5068C113.709 10.4387 114.68 9.77018 115.879 9.77018C117.078 9.77018 118.079 10.3966 118.435 11.5068H113.351Z" fill="white"/>
<path d="M126.003 8.24835C124.818 8.24835 123.903 8.71845 123.404 9.57263V8.33343H121.719V16.706H123.489V12.8476C123.489 10.4552 124.732 9.9997 125.975 9.9997H126.075V8.24835H126.004H126.003Z" fill="white"/>
<path d="M19.7523 13.2325C20.7907 12.8786 20.5449 11.43 20.2623 9.77378C19.9137 7.72706 19.511 5.36206 21.4117 4.34967C21.4117 4.34967 20.1825 6.04888 22.0309 8.54007C23.9059 11.066 24.2243 16.3465 20.4201 17.4568C18.6249 17.9808 16.97 16.6849 15.7225 15.1705C12.2605 13.5883 14.3969 12.7945 9.06353 15.1705C8.59849 16.7169 6.23083 18.1088 4.73742 18.1345C0.787401 18.2021 0.160865 13.0487 1.26166 10.0701C2.34686 7.13353 0.701172 5.87054 0.701172 5.87054C2.80094 6.27476 3.06697 8.66077 3.2963 10.7258C3.48252 12.3967 3.64489 13.8581 4.73742 13.8883C8.01781 13.8883 6.91334 8.52271 6.91334 8.52271L11.7311 7.00728L16.4747 8.47055C16.4747 8.47055 17.4296 14.0255 19.7513 13.2334L19.7523 13.2325Z" fill="url(#paint0_linear_2253_39292)"/>
<path d="M20.424 16.081C20.1332 16.0399 18.5674 16.1387 17.085 15.6467C16.7942 16.1972 18.8252 17.7035 19.4361 17.6751C20.0461 17.6458 21.6735 17.0669 21.645 16.9215C21.6156 16.777 21.645 16.2548 20.424 16.081Z" fill="url(#paint1_linear_2253_39292)"/>
<path d="M7.58223 13.8197C7.19694 13.314 6.71075 13.5015 6.39062 13.153C6.91348 12.4863 7.00063 11.5599 7.00063 11.5599L8.07572 11.5892L9.2967 12.7772L8.07572 16.6593C8.10509 15.4138 8.13354 14.544 7.58131 13.8197H7.58223Z" fill="url(#paint2_linear_2253_39292)"/>
<path d="M5.40234 17.8467C5.63443 17.9044 6.59398 17.7891 7.20398 17.2385C5.9546 15.5586 6.82603 14.3706 5.9546 13.5594C5.81423 13.6884 5.60599 13.7039 5.60599 13.7039L5.40234 17.8467Z" fill="url(#paint3_linear_2253_39292)"/>
<path d="M16.0406 12.7483C16.1277 12.0239 16.9414 11.9078 17.3771 11.4734C17.057 10.7784 16.9414 10.2562 16.9414 10.2562L15.8075 10.546L15.1681 11.7048C15.1681 11.7048 14.5581 15.0081 17.1441 15.7324C15.9525 14.4283 15.9525 13.4726 16.0396 12.7483H16.0406Z" fill="url(#paint4_linear_2253_39292)"/>
<path d="M1.87231 12.1197C1.87874 11.7738 1.72544 11.4904 1.52991 11.4869C1.33439 11.4832 1.17068 11.7607 1.16426 12.1066C1.15784 12.4526 1.31114 12.7359 1.50666 12.7395C1.70219 12.7431 1.8659 12.4657 1.87231 12.1197Z" fill="#1890FF"/>
<path d="M1.91842 10.7975C1.95029 10.5266 1.84968 10.2922 1.69369 10.274C1.53771 10.2557 1.38542 10.4605 1.35355 10.7314C1.32168 11.0023 1.42229 11.2367 1.57828 11.255C1.73426 11.2732 1.88655 11.0684 1.91842 10.7975Z" fill="#1890FF"/>
<path d="M2.05126 9.63521C2.06689 9.37052 1.96394 9.14912 1.82132 9.14075C1.6787 9.13237 1.55041 9.34016 1.53477 9.60491C1.51914 9.86961 1.62208 10.091 1.76471 10.0993C1.90733 10.1077 2.03562 9.89991 2.05126 9.63521Z" fill="#1890FF"/>
<path d="M1.87289 8.96418C2.013 8.94552 2.0978 8.7157 2.06231 8.45084C2.02682 8.18604 1.88447 7.98646 1.74437 8.00511C1.60426 8.02377 1.51946 8.2536 1.55495 8.51845C1.59044 8.78326 1.73279 8.98284 1.87289 8.96418Z" fill="#1890FF"/>
<path d="M1.67595 7.7977C1.77892 7.7754 1.82458 7.58371 1.77793 7.36949C1.73128 7.15528 1.60998 6.99971 1.507 7.02195C1.40402 7.04426 1.35836 7.236 1.40501 7.45022C1.45166 7.66443 1.57296 7.82001 1.67595 7.7977Z" fill="#1890FF"/>
<path d="M1.9858 14.1511C2.20876 14.0968 2.31888 13.7644 2.23176 13.4087C2.14464 13.0529 1.89328 12.8086 1.67033 12.8628C1.44737 12.9171 1.33725 13.2495 1.42437 13.6052C1.51149 13.9609 1.76285 14.2053 1.9858 14.1511Z" fill="#1890FF"/>
<path d="M2.90616 15.7969C3.17135 15.6803 3.23877 15.2521 3.05675 14.8402C2.87473 14.4285 2.5122 14.189 2.24701 14.3055C1.98182 14.422 1.9144 14.8503 2.09642 15.2621C2.27843 15.6739 2.64097 15.9134 2.90616 15.7969Z" fill="url(#paint5_linear_2253_39292)"/>
<path d="M6.37105 17.4398C6.82482 17.3405 7.14408 17.0393 7.08408 16.7669C7.02413 16.4946 6.60767 16.3543 6.1539 16.4537C5.70013 16.5529 5.38087 16.8542 5.44083 17.1265C5.50078 17.3989 5.91727 17.5391 6.37105 17.4398Z" fill="url(#paint6_linear_2253_39292)"/>
<path d="M8.1468 16.467C8.47095 16.2104 8.62467 15.8654 8.4902 15.6965C8.35568 15.5276 7.98382 15.5987 7.65968 15.8553C7.33553 16.1119 7.18175 16.4568 7.31627 16.6257C7.45079 16.7946 7.82265 16.7235 8.1468 16.467Z" fill="url(#paint7_linear_2253_39292)"/>
<path d="M1.11895 12.9001C1.12662 12.5238 0.975981 12.2157 0.782491 12.2118C0.588998 12.2079 0.425922 12.5098 0.418249 12.886C0.410577 13.2622 0.561213 13.5703 0.754706 13.5742C0.948198 13.5781 1.11128 13.2763 1.11895 12.9001Z" fill="#1890FF"/>
<path d="M1.13954 11.4135C1.18159 11.12 1.11648 10.8679 0.994109 10.8505C0.871732 10.8331 0.738435 11.0569 0.696378 11.3503C0.654321 11.6439 0.719432 11.8959 0.841806 11.9134C0.96418 11.9308 1.09748 11.707 1.13954 11.4135Z" fill="#1890FF"/>
<path d="M1.28921 10.2977C1.34126 10.0811 1.31554 9.88926 1.23179 9.86924C1.14803 9.84928 1.03794 10.0087 0.985902 10.2253C0.933857 10.4419 0.959567 10.6337 1.04332 10.6537C1.12708 10.6737 1.23717 10.5143 1.28921 10.2977Z" fill="#1890FF"/>
<path d="M1.43091 9.28486C1.48526 9.06879 1.4863 8.88292 1.43323 8.86965C1.38016 8.85637 1.29307 9.02076 1.23872 9.23677C1.18437 9.45283 1.18333 9.63876 1.2364 9.65203C1.28947 9.6653 1.37656 9.50092 1.43091 9.28486Z" fill="#1890FF"/>
<path d="M1.35973 15.2576C1.58779 15.1929 1.67901 14.812 1.56347 14.4069C1.44792 14.0017 1.16937 13.7256 0.94131 13.7903C0.713245 13.8549 0.622028 14.2358 0.73757 14.641C0.853113 15.0462 1.13166 15.3222 1.35973 15.2576Z" fill="#1890FF"/>
<path d="M2.29916 17.0686C2.55279 16.9407 2.58006 16.4856 2.36009 16.052C2.14011 15.6184 1.75619 15.3706 1.50257 15.4985C1.24895 15.6264 1.22167 16.0815 1.44164 16.5151C1.66162 16.9487 2.04554 17.1965 2.29916 17.0686Z" fill="url(#paint8_linear_2253_39292)"/>
<path d="M6.15813 17.8924C6.21536 17.566 5.87582 17.2341 5.39975 17.1511C4.92365 17.0681 4.49128 17.2654 4.43403 17.5918C4.37677 17.9181 4.71631 18.25 5.19241 18.333C5.66851 18.416 6.10086 18.2188 6.15813 17.8924Z" fill="#1890FF"/>
<path d="M22.5237 11.1728C22.7117 11.1175 22.785 10.8049 22.6872 10.4745C22.5895 10.1441 22.3578 9.92104 22.1698 9.9763C21.9817 10.0316 21.9085 10.3442 22.0062 10.6746C22.1039 11.005 22.3356 11.2281 22.5237 11.1728Z" fill="#1890FF"/>
<path d="M22.0496 9.77038C22.1956 9.71114 22.2308 9.45951 22.1282 9.2083C22.0257 8.95704 21.8243 8.80136 21.6783 8.8606C21.5324 8.91978 21.4972 9.17142 21.5997 9.42268C21.7022 9.67388 21.9037 9.82956 22.0496 9.77038Z" fill="#1890FF"/>
<path d="M21.6894 8.57461C21.825 8.52843 21.8657 8.2887 21.7802 8.03919C21.6947 7.78972 21.5155 7.6249 21.3798 7.67109C21.2441 7.71732 21.2034 7.95705 21.2889 8.20651C21.3743 8.45603 21.5536 8.62085 21.6894 8.57461Z" fill="#1890FF"/>
<path d="M21.3005 7.38625C21.4376 7.35209 21.4961 7.11465 21.4312 6.85594C21.3664 6.59723 21.2026 6.41517 21.0654 6.44938C20.9284 6.48354 20.8698 6.72098 20.9347 6.97975C20.9996 7.23846 21.1633 7.42047 21.3005 7.38625Z" fill="#1890FF"/>
<path d="M21.0472 6.26192C21.1524 6.2558 21.2273 6.07303 21.2145 5.85369C21.2016 5.63435 21.1059 5.46151 21.0007 5.46763C20.8955 5.47375 20.8206 5.65652 20.8335 5.87586C20.8463 6.09519 20.942 6.26804 21.0472 6.26192Z" fill="#1890FF"/>
<path d="M22.4518 12.6637C22.6802 12.6581 22.8581 12.3559 22.849 11.9889C22.8399 11.6218 22.6474 11.3288 22.419 11.3344C22.1906 11.34 22.0127 11.6421 22.0218 12.0092C22.0308 12.3762 22.2234 12.6693 22.4518 12.6637Z" fill="#1890FF"/>
<path d="M22.658 13.7766C22.7253 13.3286 22.5487 12.9308 22.2636 12.8883C21.9785 12.8458 21.6929 13.1745 21.6256 13.6226C21.5583 14.0707 21.735 14.4684 22.0201 14.5109C22.3051 14.5535 22.5908 14.2247 22.658 13.7766Z" fill="#1890FF"/>
<path d="M21.6233 15.7193C21.9111 15.3228 21.9356 14.8507 21.6778 14.6647C21.4201 14.4787 20.9778 14.6493 20.69 15.0458C20.4021 15.4422 20.3777 15.9144 20.6354 16.1004C20.8932 16.2863 21.3354 16.1158 21.6233 15.7193Z" fill="#1890FF"/>
<path d="M19.9928 17.191C20.3815 17.0246 20.6049 16.6768 20.4918 16.4141C20.3786 16.1514 19.9718 16.0734 19.5831 16.2398C19.1943 16.4062 18.9709 16.754 19.0841 17.0167C19.1972 17.2794 19.6041 17.3574 19.9928 17.191Z" fill="url(#paint9_linear_2253_39292)"/>
<path d="M23.4738 11.7454C23.6596 11.6899 23.7227 11.3534 23.6146 10.9939C23.5065 10.6345 23.2682 10.3881 23.0823 10.4437C22.8965 10.4992 22.8334 10.8356 22.9415 11.1952C23.0496 11.5546 23.288 11.801 23.4738 11.7454Z" fill="#1890FF"/>
<path d="M22.9398 10.1779C23.0532 10.1276 23.048 9.86875 22.9281 9.59965C22.8082 9.33055 22.619 9.15311 22.5056 9.20332C22.3922 9.25358 22.3974 9.51246 22.5173 9.78156C22.6372 10.0507 22.8263 10.2281 22.9398 10.1779Z" fill="#1890FF"/>
<path d="M22.4216 8.99691C22.4975 8.95421 22.4708 8.76376 22.362 8.57153C22.2532 8.37934 22.1035 8.25809 22.0276 8.3008C21.9517 8.3435 21.9784 8.53394 22.0872 8.72618C22.196 8.91841 22.3457 9.03961 22.4216 8.99691Z" fill="#1890FF"/>
<path d="M23.7893 12.7945C23.7946 12.3531 23.6165 11.993 23.3916 11.9904C23.1667 11.9877 22.9801 12.3433 22.9747 12.7847C22.9694 13.2261 23.1474 13.5861 23.3723 13.5889C23.5972 13.5915 23.7839 13.2359 23.7893 12.7945Z" fill="#1890FF"/>
<path d="M23.4554 14.788C23.5668 14.3227 23.4758 13.9024 23.2521 13.8491C23.0283 13.7959 22.7567 14.1299 22.6452 14.5951C22.5338 15.0603 22.6248 15.4807 22.8485 15.5339C23.0722 15.5872 23.3439 15.2532 23.4554 14.788Z" fill="#1890FF"/>
<path d="M22.183 16.8301C22.5639 16.4519 22.7358 16.0084 22.567 15.8395C22.3982 15.6706 21.9527 15.8402 21.5719 16.2185C21.1911 16.5967 21.0192 17.0402 21.1879 17.2091C21.3567 17.378 21.8022 17.2083 22.183 16.8301Z" fill="#1890FF"/>
<path d="M5.511 9.14173C5.23763 5.24671 11.2526 0.927368 11.2526 0.927368V0.929197C11.3214 0.954804 18.0252 3.4652 18.2958 7.34006C18.2958 13.3275 5.92105 14.9737 5.51192 9.14173H5.511Z" fill="url(#paint10_linear_2253_39292)"/>
<path d="M14.7021 2.69428L11.4474 4.57731C11.0401 4.57731 9.38438 4.02675 8.04688 3.82373C8.22116 3.64997 8.4542 3.36006 8.80277 3.0418C10.3723 3.93988 11.9703 4.2746 13.3656 1.91144C13.8885 2.17208 14.4407 2.5196 14.7021 2.69337V2.69428Z" fill="url(#paint11_linear_2253_39292)"/>
<path d="M15.836 10.6035C15.7167 10.8604 15.6323 11.0671 15.9809 11.2409C15.9809 11.2409 15.3122 11.6753 14.8187 11.9076C14.3242 12.139 15.2544 10.3428 15.2544 10.3428C16.068 9.64776 17.0854 7.76385 17.9284 7.15564C16.9982 9.96603 16.0103 10.2266 15.836 10.6035Z" fill="url(#paint12_linear_2253_39292)"/>
<path d="M7.66798 11.0105C7.75143 11.1267 7.87159 11.9086 7.58084 12.1116C7.58084 12.1116 7.78445 12.2561 8.80177 12.5752C9.29623 12.8067 8.10462 10.663 8.10462 10.663C7.29096 9.96792 6.68091 9.47497 5.83789 8.86682C6.56444 10.1993 7.33682 10.5469 7.66891 11.0105H7.66798Z" fill="url(#paint13_linear_2253_39292)"/>
<path d="M11.5002 4.47944C11.5002 4.47944 6.10355 2.40162 5.09721 4.96506C4.66882 6.05701 5.16509 9.73159 8.05562 10.7147C8.21429 11.365 8.33631 12.2658 8.38401 13.2068C11.6497 18.1938 15.574 13.5726 15.574 13.5726C15.574 13.5726 14.9924 11.5296 15.3741 10.3946C18.3875 8.95698 18.7214 4.09533 17.8188 3.03264C16.3721 1.33161 12.5954 3.3253 11.4992 4.47852L11.5002 4.47944Z" fill="url(#paint14_linear_2253_39292)"/>
<path d="M11.6658 9.96599C13.0023 9.90289 16.7377 10.0529 17.6816 7.80041C15.2984 8.40856 13.4958 6.85478 11.6658 6.92609C7.56808 8.11863 6.6379 7.60469 5.11328 7.05137C5.49122 10.5157 10.3292 10.0291 11.6658 9.96512V9.96599Z" fill="url(#paint15_linear_2253_39292)"/>
<path d="M6.29441 21.4971C2.60673 20.9448 2.63333 16.972 3.70477 14.8704C3.75614 14.7689 3.81026 14.672 3.86714 14.5796C4.40928 13.6916 4.56706 12.8466 4.56339 12.1588C4.56339 12.1478 4.56339 12.1369 4.56339 12.1259C4.56339 12.1049 4.56339 12.0839 4.56248 12.0628C4.56248 12.0491 4.56248 12.0345 4.56156 12.0208C4.56156 12.0107 4.56156 11.9997 4.56064 11.9897C4.52211 11.0961 4.22398 10.509 4.22398 10.509C5.41559 11.1446 5.74767 12.1094 5.79078 13.1337C5.79078 13.1419 5.79078 13.1502 5.79169 13.1575C5.79169 13.174 5.79261 13.1905 5.79353 13.2069C5.79353 13.2289 5.79445 13.2508 5.79537 13.2728C5.79537 13.292 5.79537 13.3112 5.79537 13.3304C5.79537 13.3614 5.79537 13.3916 5.79537 13.4227C5.79078 14.3263 5.6064 15.2564 5.62291 16.0319C5.62291 16.0575 5.62383 16.0822 5.62566 16.1078C5.62749 16.1426 5.62933 16.1773 5.63116 16.2121C5.67703 16.8961 5.91554 17.4403 6.63379 17.71C8.31437 18.3402 8.47489 15.0652 8.24186 11.7043C10.7994 11.9073 11.4681 12.863 12.2231 15.1521C12.4635 18.224 9.57751 21.9891 6.29441 21.4971Z" fill="url(#paint16_linear_2253_39292)"/>
<path d="M17.8823 16.0808C20.859 17.1371 20.8398 15.9601 21.6791 19.2798C22.5185 22.5996 13.7341 22.6856 13.7341 22.6856L15.8073 20.1944C15.8073 20.1944 15.078 19.4993 13.7341 19.2808C12.4489 19.0723 12.2756 15.287 12.2031 15.191C12.6113 12.7227 13.0773 11.5895 15.2413 11.3865C15.2073 13.0034 15.8761 15.3693 17.8814 16.0817L17.8823 16.0808Z" fill="url(#paint17_linear_2253_39292)"/>
<path d="M21.6197 20.251C20.7483 22.627 13.7344 22.6846 13.7344 22.6846C13.8307 22.5685 14.3545 21.9027 14.6159 21.6411C14.515 21.7829 14.3957 21.9905 14.3123 22.1423C14.2738 22.2118 14.3425 22.2895 14.4178 22.2631C18.5678 20.7998 21.1556 19.0393 21.2124 17.7004C21.3574 18.1065 21.9683 19.5258 21.6197 20.2501V20.251Z" fill="url(#paint18_linear_2253_39292)"/>
<path d="M11.6103 6.20461C13.5358 4.2466 18.7058 1.67036 18.172 6.22748C17.6399 10.7727 13.1551 7.81418 11.68 7.09082C10.3004 7.68341 6.2219 10.5761 5.13487 7.22159C4.04784 3.86798 9.46007 5.10626 11.6094 6.20461H11.6103Z" fill="url(#paint19_linear_2253_39292)"/>
<path d="M17.4643 5.53372C16.3305 4.5195 15.2269 4.78015 12.64 6.43181C12.3208 6.66957 12.1319 6.34491 12.3492 6.14189C14.9361 3.733 17.7551 3.30226 17.4643 5.53372Z" fill="url(#paint20_linear_2253_39292)"/>
<path d="M6.24524 8.02499C5.89667 5.56217 8.04691 5.56217 10.5466 6.46023C10.6916 6.51239 10.7824 6.32306 10.5466 6.1996C7.55337 4.63483 4.62526 5.41767 5.34444 7.01077C5.66367 7.71863 6.2416 7.9985 6.24524 8.02499Z" fill="url(#paint21_linear_2253_39292)"/>
<path d="M7.49609 8.60514C6.39162 8.60514 6.01367 7.01197 7.26403 6.20081C7.00255 7.56257 7.87403 8.34447 10.8095 6.83823C11.0141 6.73308 11.1874 6.9672 11.0709 7.06963C9.64725 8.02532 8.17311 8.60514 7.49609 8.60514Z" fill="url(#paint22_linear_2253_39292)"/>
<path d="M16.2994 8.46033C17.5488 8.34876 18.479 6.2005 16.2994 5.30243C17.0837 7.64911 15.1656 8.86639 12.5503 6.78029C12.3705 6.63674 12.3466 6.80955 12.5796 7.01169C12.8117 7.2147 14.3528 8.63407 16.2994 8.46033Z" fill="url(#paint23_linear_2253_39292)"/>
<path d="M10.7093 6.69824C10.7093 6.69824 7.39594 5.35385 7.7858 6.7924C8.17473 8.23004 10.7093 6.69824 10.7093 6.69824Z" fill="white"/>
<path d="M6.33305 21.5279C9.15204 21.8846 11.0536 20.6591 11.9132 18.9782C12.6104 20.253 14.2487 20.639 15.6908 20.3399L17.3016 18.5255C14.79 19.0943 12.6975 17.8195 12.2324 15.096C11.9132 17.6164 10.1694 19.7893 6.94311 19.4126C5.65242 19.2617 4.81764 18.5438 4.35623 17.5579C3.82693 16.4275 3.48477 15.6456 3.60035 15.095C3.28112 15.7618 3.01509 16.8976 3.10591 18.0499C3.28662 20.339 4.81489 21.3349 6.33218 21.527L6.33305 21.5279Z" fill="url(#paint24_linear_2253_39292)"/>
<path d="M11.9097 18.9772C11.6318 19.5205 11.2456 20.0161 10.7539 20.4258C11.0961 19.4116 11.153 18.8611 11.153 17.8185C11.7428 17.0612 12.1005 16.1065 12.229 15.095C12.3767 15.9602 12.6886 16.679 13.1261 17.2387C12.7528 18.6581 12.6941 18.9772 13.45 20.2228C12.7234 20.0198 12.1629 19.439 11.9097 18.9772Z" fill="url(#paint25_linear_2253_39292)"/>
<path d="M15.6904 18.6293C15.807 18.7455 15.506 19.885 15.3125 20.4254L15.429 20.6285C15.429 20.6285 16.2106 19.7615 16.7949 19.093C16.9894 18.8707 17.2095 18.6577 17.3178 18.5132C16.8821 18.6001 16.3583 18.6869 15.6904 18.6293Z" fill="url(#paint26_linear_2253_39292)"/>
<path d="M12.6465 6.61516C12.6465 6.61516 16.3726 4.04992 15.9993 6.48716C15.625 8.92532 12.6465 6.61516 12.6465 6.61516Z" fill="white"/>
<path d="M4.15307 15.8725C4.23068 15.5654 4.13189 15.2759 3.93243 15.2258C3.73297 15.1757 3.50837 15.384 3.43077 15.6911C3.35317 15.9982 3.45196 16.2877 3.65141 16.3378C3.85087 16.3879 4.07548 16.1796 4.15307 15.8725Z" fill="#69C0FF"/>
<path d="M4.42842 14.7056C4.52188 14.4719 4.47441 14.2335 4.32241 14.1731C4.1704 14.1126 3.97143 14.2531 3.87798 14.4867C3.78453 14.7204 3.83199 14.9587 3.98399 15.0192C4.13599 15.0796 4.33497 14.9392 4.42842 14.7056Z" fill="#69C0FF"/>
<path d="M4.68443 13.5892C4.74762 13.375 4.69167 13.17 4.55947 13.1312C4.42726 13.0924 4.26887 13.2346 4.20569 13.4488C4.1425 13.663 4.19845 13.868 4.33065 13.9068C4.46285 13.9455 4.62125 13.8034 4.68443 13.5892Z" fill="#69C0FF"/>
<path d="M4.88204 12.5389C4.88902 12.3152 4.78342 12.1305 4.64619 12.1262C4.50896 12.122 4.39206 12.2998 4.38509 12.5235C4.37812 12.7471 4.48371 12.9318 4.62094 12.9361C4.75818 12.9404 4.87507 12.7625 4.88204 12.5389Z" fill="#69C0FF"/>
<path d="M4.6277 11.8879C4.72926 11.8805 4.80075 11.7259 4.78737 11.5426C4.77399 11.3592 4.68082 11.2165 4.57925 11.2238C4.47769 11.2312 4.4062 11.3858 4.41958 11.5692C4.43295 11.7526 4.52614 11.8953 4.6277 11.8879Z" fill="#69C0FF"/>
<path d="M3.92428 17.7594C4.15214 17.732 4.30247 17.4249 4.26005 17.0734C4.21763 16.7219 3.99853 16.459 3.77067 16.4864C3.5428 16.5137 3.39248 16.8208 3.4349 17.1723C3.47732 17.5239 3.69642 17.7867 3.92428 17.7594Z" fill="#69C0FF"/>
<path d="M4.50613 19.2536C4.73868 19.1698 4.81911 18.8035 4.68579 18.4353C4.55247 18.0672 4.25587 17.8365 4.02332 17.9202C3.79079 18.0039 3.71035 18.3703 3.84367 18.7384C3.977 19.1066 4.27359 19.3372 4.50613 19.2536Z" fill="#69C0FF"/>
<path d="M6.17003 20.2499C6.31488 20.0317 6.1357 19.6591 5.76985 19.4177C5.40399 19.1763 4.98999 19.1575 4.84514 19.3756C4.70029 19.5938 4.87946 19.9664 5.24532 20.2078C5.61118 20.4492 6.02517 20.4681 6.17003 20.2499Z" fill="#69C0FF"/>
<path d="M8.0385 20.6273C8.08251 20.375 7.74754 20.1063 7.29028 20.0271C6.83308 19.9479 6.42679 20.0881 6.38278 20.3404C6.33883 20.5927 6.6738 20.8615 7.13101 20.9407C7.58821 21.02 7.99455 20.8797 8.0385 20.6273Z" fill="#69C0FF"/>
<path d="M9.24656 20.7465C9.6591 20.6022 9.92836 20.3001 9.84802 20.0718C9.76762 19.8435 9.36803 19.7755 8.95548 19.9198C8.54294 20.0642 8.27368 20.3663 8.35402 20.5946C8.43442 20.8228 8.83402 20.8909 9.24656 20.7465Z" fill="#69C0FF"/>
<path d="M10.8424 19.6965C11.1454 19.4365 11.2919 19.1109 11.1696 18.9693C11.0473 18.8277 10.7025 18.9236 10.3996 19.1836C10.0966 19.4435 9.95017 19.7691 10.0725 19.9107C10.1947 20.0524 10.5395 19.9564 10.8424 19.6965Z" fill="url(#paint27_linear_2253_39292)"/>
<path d="M3.40055 16.6112C3.47809 16.287 3.37396 15.9844 3.16797 15.9354C2.96197 15.8865 2.73211 16.1097 2.65457 16.4339C2.57702 16.7582 2.68115 17.0607 2.88715 17.1097C3.09314 17.1587 3.323 16.9355 3.40055 16.6112Z" fill="#69C0FF"/>
<path d="M3.41046 15.2353C3.50242 14.9924 3.52125 14.7745 3.45253 14.7487C3.3838 14.7228 3.25353 14.8987 3.16157 15.1416C3.06961 15.3845 3.05077 15.6024 3.1195 15.6282C3.18823 15.6541 3.3185 15.4781 3.41046 15.2353Z" fill="#69C0FF"/>
<path d="M3.86242 14.213C3.96239 14.0087 3.98697 13.8157 3.9173 13.7818C3.84764 13.7479 3.71012 13.886 3.61014 14.0903C3.51017 14.2945 3.48559 14.4876 3.55526 14.5215C3.62492 14.5554 3.76244 14.4172 3.86242 14.213Z" fill="#69C0FF"/>
<path d="M3.16195 18.6068C3.39654 18.5804 3.55267 18.2587 3.51067 17.8883C3.46866 17.5179 3.24444 17.2391 3.00984 17.2655C2.77525 17.292 2.61912 17.6137 2.66112 17.9841C2.70313 18.3544 2.92735 18.6333 3.16195 18.6068Z" fill="#69C0FF"/>
<path d="M3.78625 20.1707C4.03275 20.0795 4.11621 19.6931 3.97266 19.3077C3.82911 18.9222 3.51292 18.6837 3.26643 18.775C3.01993 18.8662 2.93647 19.2527 3.08001 19.6381C3.22356 20.0235 3.53976 20.262 3.78625 20.1707Z" fill="#69C0FF"/>
<path d="M5.31457 21.3869C5.52499 21.1717 5.4303 20.7394 5.10308 20.4214C4.77586 20.1034 4.34001 20.02 4.12959 20.2352C3.91917 20.4504 4.01386 20.8827 4.34108 21.2007C4.6683 21.5187 5.10415 21.6021 5.31457 21.3869Z" fill="#69C0FF"/>
<path d="M7.35661 21.7628C7.42629 21.4761 7.10557 21.1526 6.64026 21.0402C6.17495 20.9278 5.74129 21.0691 5.67162 21.3558C5.60195 21.6424 5.92266 21.966 6.38797 22.0784C6.85328 22.1907 7.28693 22.0495 7.35661 21.7628Z" fill="#69C0FF"/>
<path d="M8.64674 21.9341C9.08724 21.8481 9.40639 21.5851 9.35955 21.3466C9.31271 21.1082 8.91763 20.9847 8.47713 21.0707C8.03663 21.1567 7.71754 21.4196 7.76432 21.6581C7.81115 21.8965 8.20623 22.0201 8.64674 21.9341Z" fill="#69C0FF"/>
<path d="M10.5986 20.9863C10.9698 20.725 11.1826 20.3886 11.0738 20.2352C10.9652 20.0817 10.5761 20.1692 10.2049 20.4305C9.83366 20.6918 9.62086 21.0281 9.7296 21.1816C9.83833 21.3351 10.2274 21.2477 10.5986 20.9863Z" fill="url(#paint28_linear_2253_39292)"/>
<path d="M14.4925 18.8569C14.0778 18.7627 13.71 18.8679 13.6696 19.092C13.6293 19.316 13.9329 19.573 14.3475 19.6672C14.7622 19.7614 15.13 19.6562 15.1704 19.4322C15.2107 19.2081 14.9071 18.9511 14.4925 18.8569Z" fill="url(#paint29_linear_2253_39292)"/>
<path d="M13.0111 18.1774C12.7057 17.9104 12.347 17.8235 12.2084 17.9827C12.0699 18.1418 12.2066 18.4884 12.5112 18.7545C12.8166 19.0216 13.1753 19.1084 13.3129 18.9493C13.4505 18.7902 13.3147 18.4436 13.0102 18.1774H13.0111Z" fill="url(#paint30_linear_2253_39292)"/>
<path d="M13.3112 19.5438C12.9434 19.3463 12.5682 19.3389 12.4719 19.5273C12.3756 19.7157 12.5948 20.0276 12.9627 20.2251C13.3296 20.4226 13.7057 20.43 13.802 20.2416C13.8983 20.0532 13.6791 19.7413 13.3112 19.5438Z" fill="url(#paint31_linear_2253_39292)"/>
<path d="M16.7945 19.0937L16.0386 19.9624C15.8313 19.9369 15.6561 19.8289 15.6011 19.6753C15.5121 19.4284 15.7433 19.1357 16.1157 19.0205C16.3762 18.94 16.6304 18.9839 16.7945 19.0927V19.0937Z" fill="url(#paint32_linear_2253_39292)"/>
<path d="M15.1431 20.9867C15.0816 20.9867 15.0184 20.9831 14.9541 20.974C14.5203 20.9127 14.1909 20.653 14.2184 20.3932C14.2459 20.1335 14.6202 19.9734 15.0541 20.0347C15.3293 20.0731 15.5614 20.1921 15.6889 20.3393L15.144 20.9867H15.1431Z" fill="url(#paint33_linear_2253_39292)"/>
</g>
<defs>
<linearGradient id="paint0_linear_2253_39292" x1="0.701172" y1="11.2416" x2="23.3831" y2="11.2416" gradientUnits="userSpaceOnUse">
<stop stop-color="#0050B3"/>
<stop offset="0.28" stop-color="#003A8C"/>
<stop offset="0.77" stop-color="#003A8C"/>
<stop offset="1" stop-color="#0050B3"/>
</linearGradient>
<linearGradient id="paint1_linear_2253_39292" x1="18.9398" y1="17.4611" x2="19.6587" y2="15.4605" gradientUnits="userSpaceOnUse">
<stop offset="0.13" stop-color="#002766"/>
<stop offset="1" stop-color="#0147A3"/>
</linearGradient>
<linearGradient id="paint2_linear_2253_39292" x1="8.55278" y1="13.6698" x2="7.21751" y2="14.2516" gradientUnits="userSpaceOnUse">
<stop stop-color="#002766"/>
<stop offset="1" stop-color="#003A8C"/>
</linearGradient>
<linearGradient id="paint3_linear_2253_39292" x1="4.64279" y1="15.8165" x2="6.5021" y2="15.6416" gradientUnits="userSpaceOnUse">
<stop stop-color="#002766"/>
<stop offset="1" stop-color="#013C90"/>
</linearGradient>
<linearGradient id="paint4_linear_2253_39292" x1="15.4378" y1="12.7858" x2="16.7743" y2="12.9615" gradientUnits="userSpaceOnUse">
<stop stop-color="#002766"/>
<stop offset="1" stop-color="#003A8C"/>
</linearGradient>
<linearGradient id="paint5_linear_2253_39292" x1="-2.99206" y1="19.1315" x2="-2.04739" y2="20.2716" gradientUnits="userSpaceOnUse">
<stop stop-color="#1890FF"/>
<stop offset="1" stop-color="#0050B3"/>
</linearGradient>
<linearGradient id="paint6_linear_2253_39292" x1="8.84511" y1="23.4588" x2="10.3319" y2="22.9833" gradientUnits="userSpaceOnUse">
<stop stop-color="#0050B3"/>
<stop offset="1" stop-color="#188FFF"/>
</linearGradient>
<linearGradient id="paint7_linear_2253_39292" x1="4.20619" y1="11.3457" x2="5.09547" y2="10.8529" gradientUnits="userSpaceOnUse">
<stop stop-color="#1890FF"/>
<stop offset="1" stop-color="#0050B3"/>
</linearGradient>
<linearGradient id="paint8_linear_2253_39292" x1="-3.85445" y1="20.5246" x2="-2.78312" y2="21.903" gradientUnits="userSpaceOnUse">
<stop stop-color="#1890FF"/>
<stop offset="1" stop-color="#096DD9"/>
</linearGradient>
<linearGradient id="paint9_linear_2253_39292" x1="20.0403" y1="16.5787" x2="19.3431" y2="17.2265" gradientUnits="userSpaceOnUse">
<stop stop-color="#1890FF"/>
<stop offset="1" stop-color="#0050B3"/>
</linearGradient>
<linearGradient id="paint10_linear_2253_39292" x1="11.8984" y1="0.955719" x2="11.8984" y2="12.777" gradientUnits="userSpaceOnUse">
<stop stop-color="#003A8C"/>
<stop offset="1" stop-color="#1890FF"/>
</linearGradient>
<linearGradient id="paint11_linear_2253_39292" x1="11.7703" y1="4.27917" x2="10.2383" y2="0.306943" gradientUnits="userSpaceOnUse">
<stop stop-color="#003A8C"/>
<stop offset="1" stop-color="#0050B3"/>
</linearGradient>
<linearGradient id="paint12_linear_2253_39292" x1="17.3377" y1="10.5925" x2="16.5842" y2="9.80823" gradientUnits="userSpaceOnUse">
<stop stop-color="#1890FF"/>
<stop offset="1" stop-color="#096DD9"/>
</linearGradient>
<linearGradient id="paint13_linear_2253_39292" x1="6.11127" y1="11.3699" x2="7.96831" y2="10.4096" gradientUnits="userSpaceOnUse">
<stop stop-color="#1890FF"/>
<stop offset="1" stop-color="#096DD9"/>
</linearGradient>
<linearGradient id="paint14_linear_2253_39292" x1="11.6112" y1="2.34583" x2="11.6112" y2="9.67583" gradientUnits="userSpaceOnUse">
<stop stop-color="#1890FF"/>
<stop offset="1" stop-color="#003A8C"/>
</linearGradient>
<linearGradient id="paint15_linear_2253_39292" x1="11.3979" y1="5.53326" x2="11.3979" y2="9.96599" gradientUnits="userSpaceOnUse">
<stop offset="0.16" stop-color="#002966"/>
<stop offset="1" stop-color="#013B8D"/>
</linearGradient>
<linearGradient id="paint16_linear_2253_39292" x1="9.11791" y1="12.9252" x2="5.84623" y2="17.0778" gradientUnits="userSpaceOnUse">
<stop stop-color="#003A8C"/>
<stop offset="1" stop-color="#1890FF"/>
</linearGradient>
<linearGradient id="paint17_linear_2253_39292" x1="12.3425" y1="14.6221" x2="16.651" y2="19.2116" gradientUnits="userSpaceOnUse">
<stop stop-color="#003A8C"/>
<stop offset="1" stop-color="#1890FF"/>
</linearGradient>
<linearGradient id="paint18_linear_2253_39292" x1="17.5092" y1="20.2739" x2="18.9223" y2="24.4496" gradientUnits="userSpaceOnUse">
<stop stop-color="#1890FF"/>
<stop offset="1" stop-color="#0050B3"/>
</linearGradient>
<linearGradient id="paint19_linear_2253_39292" x1="11.602" y1="4.895" x2="11.602" y2="8.83575" gradientUnits="userSpaceOnUse">
<stop stop-color="#003A8C"/>
<stop offset="1" stop-color="#0050B3"/>
</linearGradient>
<linearGradient id="paint20_linear_2253_39292" x1="13.7372" y1="6.8351" x2="19.5636" y2="1.80587" gradientUnits="userSpaceOnUse">
<stop stop-color="#01439B"/>
<stop offset="1" stop-color="#0050B3"/>
</linearGradient>
<linearGradient id="paint21_linear_2253_39292" x1="10.6677" y1="6.53616" x2="1.50183" y2="6.89039" gradientUnits="userSpaceOnUse">
<stop stop-color="#014199"/>
<stop offset="0.73" stop-color="#0050B3"/>
</linearGradient>
<linearGradient id="paint22_linear_2253_39292" x1="6.4916" y1="7.53875" x2="10.9089" y2="6.89752" gradientUnits="userSpaceOnUse">
<stop stop-color="#096DD9"/>
<stop offset="1" stop-color="#0147A4"/>
</linearGradient>
<linearGradient id="paint23_linear_2253_39292" x1="17.7983" y1="7.01354" x2="12.5669" y2="6.63445" gradientUnits="userSpaceOnUse">
<stop stop-color="#096DD9"/>
<stop offset="1" stop-color="#01459F"/>
</linearGradient>
<linearGradient id="paint24_linear_2253_39292" x1="18.4638" y1="19.3083" x2="4.05088" y2="17.735" gradientUnits="userSpaceOnUse">
<stop stop-color="#1890FF"/>
<stop offset="0.46" stop-color="#003A8C"/>
<stop offset="1" stop-color="#1890FF"/>
</linearGradient>
<linearGradient id="paint25_linear_2253_39292" x1="11.1071" y1="17.738" x2="13.1123" y2="17.854" gradientUnits="userSpaceOnUse">
<stop offset="0.09" stop-color="#034399"/>
<stop offset="0.47" stop-color="#002766"/>
<stop offset="1" stop-color="#054BA2"/>
</linearGradient>
<linearGradient id="paint26_linear_2253_39292" x1="16.5298" y1="19.6582" x2="15.4554" y2="19.0472" gradientUnits="userSpaceOnUse">
<stop stop-color="#0050B3"/>
<stop offset="1" stop-color="#0E6ACC"/>
</linearGradient>
<linearGradient id="paint27_linear_2253_39292" x1="9.1512" y1="18.1699" x2="11.1282" y2="16.2932" gradientUnits="userSpaceOnUse">
<stop stop-color="#69C0FF"/>
<stop offset="1" stop-color="#096DD9"/>
</linearGradient>
<linearGradient id="paint28_linear_2253_39292" x1="8.8042" y1="17.261" x2="10.3874" y2="16.1359" gradientUnits="userSpaceOnUse">
<stop stop-color="#69C0FF"/>
<stop offset="1" stop-color="#096DD9"/>
</linearGradient>
<linearGradient id="paint29_linear_2253_39292" x1="12.3019" y1="17.6443" x2="15.8979" y2="20.4067" gradientUnits="userSpaceOnUse">
<stop stop-color="#096DD9"/>
<stop offset="0.41" stop-color="#69C0FF"/>
<stop offset="0.72" stop-color="#69C0FF"/>
<stop offset="1" stop-color="#096DD9"/>
</linearGradient>
<linearGradient id="paint30_linear_2253_39292" x1="12.0754" y1="17.9415" x2="15.6705" y2="20.7049" gradientUnits="userSpaceOnUse">
<stop stop-color="#096DD9"/>
<stop offset="0.41" stop-color="#69C0FF"/>
<stop offset="0.72" stop-color="#69C0FF"/>
<stop offset="1" stop-color="#096DD9"/>
</linearGradient>
<linearGradient id="paint31_linear_2253_39292" x1="11.527" y1="18.6539" x2="15.1222" y2="21.4173" gradientUnits="userSpaceOnUse">
<stop stop-color="#096DD9"/>
<stop offset="0.41" stop-color="#69C0FF"/>
<stop offset="0.72" stop-color="#69C0FF"/>
<stop offset="1" stop-color="#096DD9"/>
</linearGradient>
<linearGradient id="paint32_linear_2253_39292" x1="12.884" y1="16.8878" x2="16.48" y2="19.6511" gradientUnits="userSpaceOnUse">
<stop stop-color="#096DD9"/>
<stop offset="0.41" stop-color="#69C0FF"/>
<stop offset="0.72" stop-color="#69C0FF"/>
<stop offset="1" stop-color="#096DD9"/>
</linearGradient>
<linearGradient id="paint33_linear_2253_39292" x1="11.9159" y1="18.1453" x2="15.5111" y2="20.9086" gradientUnits="userSpaceOnUse">
<stop stop-color="#096DD9"/>
<stop offset="0.41" stop-color="#69C0FF"/>
<stop offset="0.72" stop-color="#69C0FF"/>
<stop offset="1" stop-color="#096DD9"/>
</linearGradient>
<clipPath id="clip0_2253_39292">
<rect width="125.656" height="21.7586" fill="white" transform="translate(0.417969 0.927551)"/>
</clipPath>
</defs>
</svg>
