<svg width="88" height="18" viewBox="0 0 88 18" fill="none" xmlns="http://www.w3.org/2000/svg">
<path d="M2.85606 11.8068C2.85606 12.8147 3.07729 13.5885 3.36645 14.0567C3.74557 14.6699 4.31103 14.9297 4.88751 14.9297C5.63106 14.9297 6.31126 14.7451 7.62211 12.9322C8.67226 11.479 9.90966 9.43934 10.7423 8.16062L12.1522 5.99424C13.1317 4.4897 14.2654 2.81718 15.5652 1.6835C16.6264 0.758198 17.7711 0.244141 18.9231 0.244141C20.8572 0.244141 22.6996 1.36497 24.1096 3.4671C25.6527 5.76934 26.4017 8.66917 26.4017 11.6617C26.4017 13.4407 26.0511 14.7479 25.4544 15.7806C24.8779 16.7793 23.7543 17.7772 21.8643 17.7772V14.9297C23.4826 14.9297 23.8865 13.4426 23.8865 11.7407C23.8865 9.31541 23.3211 6.62396 22.0754 4.70083C21.1914 3.33675 20.0458 2.50324 18.7854 2.50324C17.4222 2.50324 16.3253 3.53135 15.0925 5.36452C14.437 6.33847 13.7642 7.52539 13.0087 8.8647L12.177 10.338C10.5063 13.3003 10.0832 13.975 9.24782 15.0885C7.78367 17.0382 6.53341 17.7772 4.88751 17.7772C2.93501 17.7772 1.70035 16.9317 0.935694 15.6576C0.311481 14.6194 0.00488281 13.2571 0.00488281 11.7049L2.85606 11.8068Z" fill="white"/>
<path d="M2.25293 3.66813C3.5601 1.65321 5.44651 0.244141 7.61014 0.244141C8.86315 0.244141 10.1088 0.614996 11.4096 1.67708C12.8324 2.83829 14.3489 4.7504 16.2408 7.90176L16.9192 9.03268C18.5568 11.7609 19.4885 13.1644 20.0338 13.8263C20.7351 14.6763 21.2262 14.9297 21.8642 14.9297C23.4826 14.9297 23.8865 13.4426 23.8865 11.7407L26.4017 11.6617C26.4017 13.4407 26.051 14.7479 25.4543 15.7806C24.8779 16.7793 23.7543 17.7772 21.8642 17.7772C20.6892 17.7772 19.6483 17.522 18.4971 16.436C17.6122 15.6025 16.5777 14.1218 15.7818 12.7908L13.4144 8.83624C12.2266 6.85161 11.1369 5.37186 10.5063 4.70175C9.82793 3.98115 8.95587 3.11093 7.56424 3.11093C6.43791 3.11093 5.48139 3.90129 4.68093 5.11024L2.25293 3.66813Z" fill="white"/>
<path d="M7.56428 3.11093C6.43794 3.11093 5.48143 3.90129 4.68097 5.11024C3.54912 6.81856 2.85606 9.36315 2.85606 11.8068C2.85606 12.8147 3.07729 13.5885 3.36645 14.0567L0.935694 15.6576C0.311481 14.6194 0.00488281 13.2571 0.00488281 11.7049C0.00488281 8.88214 0.77964 5.94008 2.25296 3.66813C3.56014 1.65321 5.44655 0.244141 7.61018 0.244141L7.56428 3.11093Z" fill="white"/>
<path d="M31.9443 0.798828H35.2426L40.8504 10.9441L46.4591 0.798828H49.6857V17.469H46.9952V4.69281L42.0768 13.5401H39.5524L34.6349 4.69281V17.469H31.9443V0.798828ZM58.1163 7.01433C56.1867 7.01433 55.0246 8.46654 54.7464 10.2648H61.2952C61.1602 8.41238 60.0917 7.01433 58.1163 7.01433ZM52.0789 11.2893C52.0789 7.50544 54.5243 4.75156 58.1631 4.75156C61.7422 4.75156 63.8792 7.47056 63.8792 11.4912V12.2302H54.7464C55.0705 14.1863 56.3685 15.5045 58.4614 15.5045C60.1312 15.5045 61.1749 14.9951 62.1645 14.0633L63.5937 15.8139C62.2471 17.0522 60.5342 17.7664 58.366 17.7664C54.427 17.7664 52.0789 14.8941 52.0789 11.2893ZM67.1416 7.253H64.665V5.0499H67.1416V1.40652H69.7376V5.0499H73.5004V7.253H69.7376V12.8369C69.7376 14.7435 70.3472 15.421 71.8453 15.421C72.5292 15.421 72.9211 15.3623 73.5004 15.2659V17.4451C72.7788 17.6489 72.0904 17.7425 71.345 17.7425C68.5425 17.7425 67.1416 16.2114 67.1416 13.1463V7.253ZM84.4314 9.39552C83.91 8.07916 82.747 7.1098 81.0377 7.1098C78.8163 7.1098 77.3943 8.68593 77.3943 11.2535C77.3943 13.7567 78.7034 15.4091 80.9312 15.4091C82.6827 15.4091 83.933 14.3901 84.4314 13.1224V9.39552ZM87.0274 17.469H84.4791V15.7304C83.7668 16.7539 82.4706 17.7664 80.3713 17.7664C76.995 17.7664 74.7387 14.94 74.7387 11.2535C74.7387 7.53206 77.0492 4.75156 80.5145 4.75156C82.2274 4.75156 83.5713 5.43636 84.4791 6.64531V5.0499H87.0274V17.469Z" fill="white"/>
</svg>
