<svg width="88" height="20" viewBox="0 0 88 20" fill="none" xmlns="http://www.w3.org/2000/svg">
<path d="M31.0094 11.4349L30.4862 12.9172H30.4426C30.3554 12.5829 30.1956 12.0743 29.934 11.464L27.1293 4.41598H24.3828V15.6492H26.1993V8.71743C26.1993 8.28147 26.1993 7.78738 26.1848 7.17704C26.1702 6.87187 26.1412 6.63936 26.1266 6.46498H26.1702C26.2574 6.90093 26.3592 7.22064 26.4318 7.42408L29.8032 15.6201H31.082L34.4244 7.35142C34.497 7.16251 34.5697 6.78468 34.6423 6.46498H34.6859C34.6423 7.2933 34.6133 8.03443 34.5988 8.48491V15.6056H36.5315V4.38691H33.8867L31.0094 11.4349ZM38.3625 7.55487H40.2517V15.6056H38.3625V7.55487ZM39.3216 4.1544C39.0019 4.1544 38.7403 4.27066 38.5224 4.4741C38.3044 4.67755 38.1881 4.93913 38.1881 5.25883C38.1881 5.564 38.3044 5.82557 38.5224 6.02902C38.7403 6.23247 39.0019 6.33419 39.3216 6.33419C39.6413 6.33419 39.9174 6.21793 40.1209 6.02902C40.3389 5.82557 40.4551 5.564 40.4551 5.25883C40.4551 4.95366 40.3389 4.69208 40.1209 4.4741C39.932 4.27066 39.6559 4.1544 39.3216 4.1544ZM46.9509 7.48221C46.6021 7.40955 46.2388 7.36596 45.8901 7.36596C45.0327 7.36596 44.2479 7.55487 43.594 7.9327C42.9401 8.31053 42.4169 8.83368 42.0827 9.48762C41.7339 10.1561 41.5595 10.9263 41.5595 11.8127C41.5595 12.5829 41.7339 13.2659 42.0682 13.8908C42.4024 14.5011 42.8674 14.9952 43.4923 15.3294C44.0881 15.6637 44.7856 15.8381 45.5704 15.8381C46.4713 15.8381 47.2415 15.6492 47.8519 15.3004L47.8664 15.2859V13.542L47.7937 13.6002C47.5176 13.8036 47.1979 13.978 46.8782 14.0797C46.544 14.196 46.2388 14.2541 45.9772 14.2541C45.2216 14.2541 44.6258 14.0361 44.2044 13.5566C43.7684 13.0915 43.5504 12.4521 43.5504 11.6529C43.5504 10.8246 43.7684 10.1706 44.2189 9.69106C44.6694 9.21151 45.2652 8.96447 45.9918 8.96447C46.6021 8.96447 47.227 9.16791 47.7937 9.57481L47.8664 9.63294V7.78738L47.8519 7.77285C47.6048 7.67113 47.3287 7.55487 46.9509 7.48221ZM53.1851 7.42408C52.7201 7.42408 52.2841 7.5694 51.9063 7.87457C51.5866 8.13615 51.3686 8.51398 51.1797 8.96447H51.1651V7.55487H49.276V15.6056H51.1651V11.493C51.1651 10.7955 51.3105 10.2142 51.6302 9.79279C51.9499 9.35683 52.3568 9.13885 52.8508 9.13885C53.0252 9.13885 53.1996 9.18245 53.4176 9.21151C53.621 9.26964 53.7664 9.32777 53.8681 9.40042L53.9407 9.45855V7.5694L53.8971 7.55487C53.7664 7.46768 53.5048 7.42408 53.1851 7.42408ZM58.3294 7.38049C57.007 7.38049 55.9461 7.77285 55.205 8.54304C54.4494 9.31323 54.0861 10.3741 54.0861 11.711C54.0861 12.9607 54.4639 13.978 55.1905 14.7191C55.9171 15.4457 56.9053 15.8235 58.1405 15.8235C59.4338 15.8235 60.4656 15.4312 61.2067 14.6464C61.9624 13.8617 62.3257 12.8154 62.3257 11.5221C62.3257 10.2433 61.9769 9.22604 61.2648 8.48491C60.5818 7.74379 59.5791 7.38049 58.3294 7.38049ZM59.8407 13.5711C59.4919 14.0216 58.9397 14.2396 58.2567 14.2396C57.5737 14.2396 57.0215 14.0216 56.6291 13.542C56.2368 13.0915 56.0479 12.4376 56.0479 11.6093C56.0479 10.7519 56.2513 10.098 56.6291 9.63294C57.0215 9.16791 57.5592 8.9354 58.2422 8.9354C58.9107 8.9354 59.4338 9.15338 59.8116 9.60387C60.1895 10.0544 60.3929 10.7083 60.3929 11.5657C60.3638 12.4376 60.204 13.1206 59.8407 13.5711ZM66.5399 10.8972C65.9441 10.6502 65.5663 10.4613 65.3919 10.3014C65.2466 10.1561 65.1739 9.95264 65.1739 9.69106C65.1739 9.47308 65.2611 9.25511 65.4791 9.10979C65.6971 8.96447 65.9441 8.89181 66.3074 8.89181C66.6271 8.89181 66.9613 8.94994 67.281 9.03713C67.6007 9.12432 67.8914 9.25511 68.1239 9.42949L68.1966 9.48762V7.71472L68.153 7.70019C67.935 7.613 67.6443 7.52581 67.2956 7.45315C66.9468 7.39502 66.6271 7.36596 66.3655 7.36596C65.4646 7.36596 64.7234 7.58394 64.1421 8.06349C63.5609 8.51398 63.2848 9.12432 63.2848 9.83638C63.2848 10.2142 63.3429 10.5484 63.4737 10.8246C63.6045 11.1007 63.7934 11.3622 64.055 11.5802C64.3165 11.7837 64.6944 12.0162 65.2175 12.2341C65.6535 12.4231 65.9877 12.5684 66.1911 12.6846C66.3946 12.8009 66.5254 12.9317 66.6271 13.0334C66.6998 13.1497 66.7434 13.295 66.7434 13.4839C66.7434 14.0216 66.3365 14.2832 65.5081 14.2832C65.1884 14.2832 64.8542 14.225 64.4618 14.0942C64.0695 13.9634 63.7062 13.7745 63.401 13.5566L63.3284 13.4984V15.344L63.372 15.3585C63.6481 15.4893 63.9823 15.5765 64.3892 15.6782C64.7961 15.7509 65.1594 15.809 65.4791 15.809C66.4527 15.809 67.252 15.591 67.8187 15.1115C68.4 14.6464 68.7052 14.0506 68.7052 13.2804C68.7052 12.7428 68.5598 12.2632 68.2401 11.8999C67.8187 11.5511 67.2956 11.1879 66.5399 10.8972ZM73.6896 7.38049C72.3672 7.38049 71.3064 7.77285 70.5653 8.54304C69.8241 9.31323 69.4463 10.3741 69.4463 11.711C69.4463 12.9607 69.8241 13.978 70.5507 14.7191C71.2773 15.4457 72.2655 15.8235 73.5007 15.8235C74.794 15.8235 75.8258 15.4312 76.5669 14.6464C77.3226 13.8617 77.6859 12.8154 77.6859 11.5221C77.6859 10.2433 77.3371 9.22604 76.6251 8.48491C75.9421 7.74379 74.9394 7.38049 73.6896 7.38049ZM75.1864 13.5711C74.8376 14.0216 74.2854 14.2396 73.6024 14.2396C72.9049 14.2396 72.3672 14.0216 71.9749 13.542C71.5825 13.0915 71.3936 12.4376 71.3936 11.6093C71.3936 10.7519 71.597 10.098 71.9749 9.63294C72.3672 9.16791 72.9049 8.9354 73.5879 8.9354C74.2418 8.9354 74.7795 9.15338 75.1573 9.60387C75.5352 10.0544 75.7386 10.7083 75.7386 11.5657C75.7386 12.4376 75.5497 13.1206 75.1864 13.5711ZM87.7856 9.10979V7.55487H85.8819V5.17164L85.8238 5.18617L84.0218 5.72385L83.9782 5.73838V7.55487H81.13V6.53764C81.13 6.07262 81.2462 5.70932 81.4497 5.47681C81.6531 5.2443 81.9583 5.12804 82.3361 5.12804C82.5977 5.12804 82.8738 5.18617 83.179 5.31696L83.2516 5.36055V3.71844L83.208 3.70391C82.9465 3.61672 82.5977 3.55859 82.1472 3.55859C81.5804 3.55859 81.0864 3.68938 80.6359 3.90736C80.1854 4.1544 79.8512 4.48864 79.6041 4.93913C79.3571 5.37508 79.2263 5.86917 79.2263 6.43591V7.55487H77.9039V9.09525H79.2263V15.6056H81.13V9.10979H83.9782V13.2514C83.9782 14.9516 84.7775 15.809 86.376 15.809C86.6376 15.809 86.9137 15.7654 87.1752 15.7218C87.4514 15.6637 87.6548 15.591 87.771 15.5329L87.7856 15.5184V13.9634L87.7129 14.0216C87.5967 14.0942 87.4949 14.1524 87.3206 14.196C87.1752 14.2396 87.0445 14.2541 86.9427 14.2541C86.5649 14.2541 86.3033 14.1669 86.1144 13.9489C85.94 13.7455 85.8528 13.4112 85.8528 12.9172V9.10979H87.7856Z" fill="white"/>
<path d="M0.0273438 0.638672H8.93541V9.54674H0.0273438V0.638672Z" fill="#F25022"/>
<path d="M9.86523 0.638672H18.7733V9.54674H9.86523V0.638672Z" fill="#7FBA00"/>
<path d="M0.0273438 10.4766H8.93541V19.3846H0.0273438V10.4766Z" fill="#00A4EF"/>
<path d="M9.86523 10.4766H18.7733V19.3846H9.86523V10.4766Z" fill="#FFB900"/>
</svg>
