<svg width="128" height="23" viewBox="0 0 128 23" fill="none" xmlns="http://www.w3.org/2000/svg">
<g clip-path="url(#clip0_2253_39385)">
<path d="M27.8125 4.82733H30.4545V18.8055H27.8125V4.82733Z" fill="white"/>
<path d="M33.1631 8.46506H35.7538V9.52624C36.3393 9.02858 36.8735 8.68462 37.3492 8.49434C37.8249 8.29674 38.3153 8.2016 38.8129 8.2016C39.8375 8.2016 40.7084 8.5602 41.4256 9.27741C42.0257 9.88484 42.3258 10.785 42.3258 11.9779V18.8133H39.757V14.2832C39.757 13.0464 39.6984 12.2267 39.5887 11.8242C39.4789 11.4217 39.2886 11.1143 39.0105 10.9021C38.7324 10.6899 38.3958 10.5874 37.9932 10.5874C37.4663 10.5874 37.0199 10.7631 36.6393 11.1143C36.2661 11.4656 36.0026 11.9486 35.8563 12.5707C35.7831 12.8927 35.7392 13.5953 35.7392 14.6711V18.8206H33.1484V8.46506H33.1631Z" fill="white"/>
<path d="M54.9652 10.5571L52.8063 11.7427C52.4038 11.3182 52.0013 11.0255 51.6061 10.8571C51.2109 10.6961 50.7425 10.6083 50.2156 10.6083C49.2422 10.6083 48.4592 10.9011 47.859 11.4792C47.2589 12.0574 46.9589 12.7965 46.9589 13.704C46.9589 14.5822 47.2443 15.2994 47.8225 15.8556C48.4006 16.4118 49.1544 16.6899 50.0985 16.6899C51.2621 16.6899 52.1623 16.2947 52.8136 15.5044L54.8628 16.9022C53.7577 18.3439 52.1916 19.0684 50.1717 19.0684C48.3567 19.0684 46.9296 18.5269 45.8977 17.4511C44.8658 16.3752 44.3535 15.1165 44.3535 13.6674C44.3535 12.6648 44.6023 11.7427 45.1073 10.9011C45.605 10.0594 46.3075 9.39346 47.2004 8.91776C48.0932 8.43475 49.0959 8.19324 50.2083 8.19324C51.2328 8.19324 52.155 8.39815 52.9746 8.80799C53.7797 9.22514 54.4456 9.80329 54.9652 10.5571Z" fill="white"/>
<path d="M62.1574 8.2016C63.1307 8.2016 64.0529 8.44311 64.9091 8.93344C65.7654 9.42378 66.4387 10.0824 66.9217 10.9167C67.4047 11.751 67.6462 12.6585 67.6462 13.6246C67.6462 14.5979 67.4047 15.5127 66.9217 16.3617C66.4387 17.2106 65.78 17.8766 64.9384 18.3523C64.1041 18.828 63.182 19.0695 62.172 19.0695C60.6864 19.0695 59.4276 18.5425 58.3737 17.4887C57.3199 16.4348 56.793 15.1541 56.793 13.6465C56.793 12.0291 57.3858 10.6825 58.5713 9.60674C59.6106 8.66998 60.8035 8.2016 62.1574 8.2016ZM62.2013 10.646C61.3963 10.646 60.723 10.9241 60.1887 11.4876C59.6545 12.0511 59.3837 12.7683 59.3837 13.6392C59.3837 14.5394 59.6472 15.2639 60.1814 15.8274C60.7083 16.3836 61.3816 16.6617 62.194 16.6617C63.0063 16.6617 63.6796 16.3763 64.2212 15.8128C64.7627 15.2493 65.0335 14.5247 65.0335 13.6392C65.0335 12.7537 64.7701 12.0291 64.2358 11.4803C63.7016 10.9241 63.021 10.646 62.2013 10.646Z" fill="white"/>
<path d="M77.4028 8.46506H79.9862V17.3204C79.9862 19.0695 79.6349 20.3575 78.9323 21.1772C77.9883 22.2896 76.5685 22.8531 74.6657 22.8531C73.6484 22.8531 72.7995 22.7287 72.1116 22.4725C71.4236 22.2164 70.8381 21.8432 70.3624 21.3528C69.8868 20.8625 69.5355 20.2624 69.3086 19.5598H72.1628C72.4189 19.8525 72.7409 20.0721 73.1435 20.2185C73.546 20.3648 74.0143 20.4453 74.5559 20.4453C75.2512 20.4453 75.8147 20.3356 76.2391 20.1233C76.6636 19.9111 76.9637 19.6257 77.1393 19.289C77.315 18.9451 77.4028 18.3596 77.4028 17.518C76.949 17.9717 76.466 18.301 75.9684 18.4986C75.4707 18.6962 74.8999 18.7987 74.2705 18.7987C72.88 18.7987 71.709 18.301 70.7576 17.2984C69.7989 16.2958 69.3232 15.0297 69.3232 13.5001C69.3232 11.8608 69.8282 10.5435 70.8455 9.54819C71.7676 8.64802 72.858 8.2016 74.1314 8.2016C74.7242 8.2016 75.2878 8.31138 75.8147 8.53093C76.3416 8.75048 76.8759 9.10908 77.4028 9.60674V8.46506ZM74.7096 10.624C73.8899 10.624 73.2166 10.8948 72.6824 11.4437C72.1481 11.9925 71.8847 12.6805 71.8847 13.5075C71.8847 14.371 72.1555 15.0736 72.7043 15.6298C73.2459 16.1787 73.9338 16.4568 74.7535 16.4568C75.5585 16.4568 76.2245 16.186 76.7441 15.6518C77.2637 15.1102 77.5272 14.4076 77.5272 13.5294C77.5272 12.6658 77.2637 11.9706 76.7368 11.429C76.2172 10.8948 75.5366 10.624 74.7096 10.624Z" fill="white"/>
<path d="M82.6064 8.46506H85.1972V9.52624C85.7826 9.02858 86.3169 8.68462 86.7926 8.49434C87.2683 8.29674 87.7586 8.2016 88.2563 8.2016C89.2808 8.2016 90.1517 8.5602 90.8689 9.27741C91.4691 9.88484 91.7691 10.785 91.7691 11.9779V18.8133H89.2003V14.2832C89.2003 13.0464 89.1418 12.2267 89.032 11.8242C88.9222 11.4217 88.732 11.1143 88.4539 10.9021C88.1758 10.6899 87.8391 10.5874 87.4366 10.5874C86.9097 10.5874 86.4632 10.7631 86.0827 11.1143C85.7094 11.4656 85.446 11.9486 85.2996 12.5707C85.2264 12.8927 85.1825 13.5953 85.1825 14.6711V18.8206H82.5918V8.46506H82.6064Z" fill="white"/>
<path d="M95.297 4.21307C95.7508 4.21307 96.1387 4.3814 96.468 4.71073C96.79 5.04006 96.9583 5.44257 96.9583 5.91095C96.9583 6.37201 96.7973 6.76721 96.4753 7.09654C96.1533 7.42587 95.7654 7.58687 95.319 7.58687C94.8579 7.58687 94.4627 7.41855 94.1407 7.08922C93.8187 6.75989 93.6504 6.35006 93.6504 5.87436C93.6504 5.42062 93.8114 5.02542 94.1334 4.70341C94.4554 4.37408 94.8433 4.21307 95.297 4.21307ZM94.0017 8.46508H96.5924V18.806H94.0017V8.46508Z" fill="white"/>
<path d="M99.2616 4.66022H101.852V8.47312H103.389V10.7052H101.852V18.8141H99.2616V10.6979H97.9297V8.4658H99.2616V4.66022Z" fill="white"/>
<path d="M109.64 8.2016C110.614 8.2016 111.536 8.44311 112.392 8.93344C113.248 9.42378 113.922 10.0824 114.405 10.9167C114.888 11.751 115.129 12.6585 115.129 13.6246C115.129 14.5979 114.888 15.5127 114.405 16.3617C113.922 17.2106 113.263 17.8766 112.421 18.3523C111.587 18.828 110.665 19.0695 109.655 19.0695C108.169 19.0695 106.911 18.5425 105.857 17.4887C104.81 16.4348 104.283 15.1541 104.283 13.6465C104.283 12.0291 104.876 10.6825 106.062 9.60674C107.101 8.66998 108.294 8.2016 109.64 8.2016ZM109.684 10.646C108.879 10.646 108.206 10.9241 107.672 11.4876C107.137 12.0511 106.867 12.7683 106.867 13.6392C106.867 14.5394 107.13 15.2639 107.664 15.8274C108.191 16.3836 108.865 16.6617 109.677 16.6617C110.489 16.6617 111.163 16.3763 111.704 15.8128C112.246 15.2493 112.516 14.5247 112.516 13.6392C112.516 12.7537 112.253 12.0291 111.719 11.4803C111.184 10.9241 110.511 10.646 109.684 10.646Z" fill="white"/>
<path d="M117.244 8.46506H119.835V9.52624C120.42 9.02858 120.955 8.68462 121.43 8.49434C121.906 8.29674 122.396 8.2016 122.894 8.2016C123.919 8.2016 124.789 8.5602 125.507 9.27741C126.107 9.88484 126.407 10.785 126.407 11.9779V18.8133H123.838V14.2832C123.838 13.0464 123.78 12.2267 123.67 11.8242C123.56 11.4217 123.37 11.1143 123.092 10.9021C122.813 10.6899 122.477 10.5874 122.074 10.5874C121.547 10.5874 121.101 10.7631 120.72 11.1143C120.347 11.4656 120.084 11.9486 119.937 12.5707C119.864 12.8927 119.82 13.5953 119.82 14.6711V18.8206H117.244V8.46506Z" fill="white"/>
<path fill-rule="evenodd" clip-rule="evenodd" d="M11.1291 3.59314C11.9634 2.31241 13.493 0.570626 15.9593 0.709676C17.7669 0.812134 19.0842 1.70498 19.5307 3.45409C19.838 4.67627 19.5746 6.38146 19.2526 7.60364C18.1914 11.5775 15.4909 12.7558 17.8401 17.7397C18.6305 19.4083 20.826 20.4402 19.5965 21.3111C18.4109 22.1527 15.3226 21.2452 13.4783 19.5546C7.29424 13.8829 8.73597 7.26699 11.1291 3.59314Z" fill="#AE04BC"/>
<path fill-rule="evenodd" clip-rule="evenodd" d="M18.3295 8.40809C19.076 8.04949 21.052 7.66161 22.4498 8.82524C23.4744 9.67418 23.8622 10.7793 23.35 12.0161C22.9987 12.8723 22.0912 13.7652 21.3667 14.3433C18.9955 16.2242 16.8878 15.7338 16.0901 19.7151C15.8266 21.047 16.6682 22.6205 15.5631 22.5985C14.4946 22.5766 13.0676 20.6811 12.7163 18.8808C11.5526 12.8065 15.4168 9.79859 18.3295 8.40809Z" fill="#1900CE"/>
<path fill-rule="evenodd" clip-rule="evenodd" d="M15.1231 22.8844C9.57569 22.3867 4.06491 18.508 1.75229 13.3704C-0.267602 8.88421 1.45955 1.4926 7.8705 5.12254C12.4152 7.69863 10.8491 13.2387 14.4059 17.2272C16.9673 20.0961 20.5899 19.2544 19.902 21.1719C19.3385 22.7746 16.477 23.0088 15.1231 22.8844Z" fill="white"/>
</g>
<defs>
<clipPath id="clip0_2253_39385">
<rect width="126.228" height="22.2114" fill="white" transform="translate(0.955078 0.701233)"/>
</clipPath>
</defs>
</svg>
