<svg width="65" height="64" viewBox="0 0 65 64" fill="none" xmlns="http://www.w3.org/2000/svg">
<path d="M0.5 11.2941C0.5 5.05655 5.55655 0 11.7941 0H53.2059C59.4435 0 64.5 5.05655 64.5 11.2941V52.7059C64.5 58.9435 59.4435 64 53.2059 64H11.7941C5.55655 64 0.5 58.9435 0.5 52.7059V11.2941Z" fill="url(#paint0_linear_239_9091)"/>
<path d="M0.5 11.2941C0.5 5.05655 5.55655 0 11.7941 0H53.2059C59.4435 0 64.5 5.05655 64.5 11.2941V52.7059C64.5 58.9435 59.4435 64 53.2059 64H11.7941C5.55655 64 0.5 58.9435 0.5 52.7059V11.2941Z" fill="url(#paint1_linear_239_9091)" fill-opacity="0.2"/>
<path d="M48.0404 32.0007C48.0404 40.3079 41.306 47.0423 32.9987 47.0423C24.6915 47.0423 17.957 40.3079 17.957 32.0007C17.957 23.6934 24.6915 16.959 32.9987 16.959C39.1667 16.959 44.4677 20.6716 46.7887 25.984M48.0404 21.709L47.2883 26.7361L42.4987 25.6673" stroke="white" stroke-width="2.375" stroke-linecap="round" stroke-linejoin="round"/>
<path d="M29.832 30.4167V28.0417C29.832 26.2928 31.2497 24.875 32.9987 24.875C34.7476 24.875 36.1654 26.2928 36.1654 28.0417V30.4167M31.8112 39.125H34.1862C36.0431 39.125 36.9716 39.125 37.6111 38.6342C37.7758 38.5078 37.9232 38.3604 38.0495 38.1957C38.5404 37.5562 38.5404 36.6278 38.5404 34.7708C38.5404 32.9139 38.5404 31.9854 38.0495 31.3459C37.9232 31.1813 37.7758 31.0339 37.6111 30.9075C36.9716 30.4167 36.0431 30.4167 34.1862 30.4167H31.8112C29.9543 30.4167 29.0258 30.4167 28.3862 30.9075C28.2216 31.0339 28.0742 31.1813 27.9478 31.3459C27.457 31.9854 27.457 32.9139 27.457 34.7708C27.457 36.6278 27.457 37.5562 27.9478 38.1957C28.0742 38.3604 28.2216 38.5078 28.3862 38.6342C29.0258 39.125 29.9543 39.125 31.8112 39.125Z" stroke="white" stroke-width="2.375" stroke-linejoin="round"/>
<defs>
<linearGradient id="paint0_linear_239_9091" x1="32.5" y1="0" x2="32.5" y2="64" gradientUnits="userSpaceOnUse">
<stop stop-color="#1675FF"/>
<stop offset="1" stop-color="#0752BE"/>
</linearGradient>
<linearGradient id="paint1_linear_239_9091" x1="64.5" y1="32" x2="0.5" y2="32" gradientUnits="userSpaceOnUse">
<stop stop-color="white" stop-opacity="0"/>
<stop offset="1" stop-color="white"/>
</linearGradient>
</defs>
</svg>
