<svg width="129" height="23" viewBox="0 0 129 23" fill="none" xmlns="http://www.w3.org/2000/svg">
<g clip-path="url(#clip0_2253_39417)">
<mask id="mask0_2253_39417" style="mask-type:luminance" maskUnits="userSpaceOnUse" x="0" y="0" width="129" height="23">
<path d="M128.077 0.667725H0.779297V22.9449H128.077V0.667725Z" fill="white"/>
</mask>
<g mask="url(#mask0_2253_39417)">
<path d="M36.708 6.13129H39.0109V13.1457C39.0109 13.9332 38.8212 14.6223 38.4418 15.2131C38.0659 15.8037 37.5395 16.2643 36.8623 16.5948C36.1851 16.9218 35.3961 17.0853 34.4955 17.0853C33.5915 17.0853 32.8009 16.9218 32.1238 16.5948C31.4466 16.2643 30.92 15.8037 30.5443 15.2131C30.1684 14.6223 29.9805 13.9332 29.9805 13.1457V6.13129H32.2833V12.9505C32.2833 13.3619 32.3737 13.7276 32.5546 14.0475C32.7388 14.3675 32.9977 14.6188 33.3309 14.8016C33.6643 14.9845 34.0525 15.0759 34.4955 15.0759C34.9424 15.0759 35.3307 14.9845 35.6604 14.8016C35.9936 14.6188 36.2507 14.3675 36.4315 14.0475C36.6159 13.7276 36.708 13.3619 36.708 12.9505V6.13129Z" fill="white"/>
<path d="M36.708 6.13129H39.0109V13.1457C39.0109 13.9332 38.8212 14.6223 38.4418 15.2131C38.0659 15.8037 37.5395 16.2643 36.8623 16.5948C36.1851 16.9218 35.3961 17.0853 34.4955 17.0853C33.5915 17.0853 32.8009 16.9218 32.1238 16.5948C31.4466 16.2643 30.92 15.8037 30.5443 15.2131C30.1684 14.6223 29.9805 13.9332 29.9805 13.1457V6.13129H32.2833V12.9505C32.2833 13.3619 32.3737 13.7276 32.5546 14.0475C32.7388 14.3675 32.9977 14.6188 33.3309 14.8016C33.6643 14.9845 34.0525 15.0759 34.4955 15.0759C34.9424 15.0759 35.3307 14.9845 35.6604 14.8016C35.9936 14.6188 36.2507 14.3675 36.4315 14.0475C36.6159 13.7276 36.708 13.3619 36.708 12.9505V6.13129Z" fill="white"/>
<path d="M43.1289 12.2492V16.9325H40.8633V8.83166H43.0226V10.261H43.1182C43.2992 9.78977 43.6022 9.41711 44.0278 9.14284C44.4531 8.86508 44.969 8.7262 45.5753 8.7262C46.1427 8.7262 46.6371 8.84923 47.0592 9.09542C47.4811 9.34149 47.809 9.69309 48.0429 10.1502C48.2771 10.6037 48.3941 11.1452 48.3941 11.7745V16.9325H46.1285V12.1753C46.132 11.6796 46.0044 11.2928 45.7455 11.0151C45.4868 10.7338 45.1303 10.5932 44.6765 10.5932C44.3715 10.5932 44.1022 10.6583 43.868 10.7883C43.6377 10.9184 43.4569 11.1083 43.3257 11.3579C43.1981 11.604 43.1324 11.9011 43.1289 12.2492Z" fill="white"/>
<path d="M43.1289 12.2492V16.9325H40.8633V8.83166H43.0226V10.261H43.1182C43.2992 9.78977 43.6022 9.41711 44.0278 9.14284C44.4531 8.86508 44.969 8.7262 45.5753 8.7262C46.1427 8.7262 46.6371 8.84923 47.0592 9.09542C47.4811 9.34149 47.809 9.69309 48.0429 10.1502C48.2771 10.6037 48.3941 11.1452 48.3941 11.7745V16.9325H46.1285V12.1753C46.132 11.6796 46.0044 11.2928 45.7455 11.0151C45.4868 10.7338 45.1303 10.5932 44.6765 10.5932C44.3715 10.5932 44.1022 10.6583 43.868 10.7883C43.6377 10.9184 43.4569 11.1083 43.3257 11.3579C43.1981 11.604 43.1324 11.9011 43.1289 12.2492Z" fill="white"/>
<path d="M53.1882 17.0642C52.5677 17.0642 52.0058 16.9059 51.5024 16.5895C51.0024 16.2696 50.6053 15.8002 50.3111 15.1814C50.0202 14.5591 49.875 13.7961 49.875 12.8925C49.875 11.9643 50.0257 11.1925 50.327 10.5772C50.6283 9.95845 51.0289 9.49611 51.5289 9.19021C52.0323 8.88081 52.5837 8.72608 53.183 8.72608C53.6403 8.72608 54.0214 8.80341 54.3264 8.95814C54.6347 9.10931 54.883 9.29918 55.071 9.52774C55.2624 9.75274 55.4077 9.97424 55.507 10.1922H55.5762V6.13129H57.8363V16.9324H55.6026V15.6349H55.507C55.4007 15.86 55.25 16.0832 55.055 16.3048C54.8636 16.5228 54.6135 16.7038 54.305 16.848C54.0002 16.9921 53.6277 17.0642 53.1882 17.0642ZM53.9061 15.2763C54.2712 15.2763 54.5797 15.1779 54.8316 14.981C55.087 14.7806 55.2819 14.501 55.4167 14.1424C55.555 13.7838 55.6238 13.3637 55.6238 12.8819C55.6238 12.4003 55.5567 11.9819 55.4219 11.6268C55.2871 11.2717 55.0922 10.9974 54.8369 10.804C54.5815 10.6107 54.2712 10.514 53.9061 10.514C53.5339 10.514 53.2202 10.6142 52.9648 10.8146C52.7095 11.015 52.5163 11.2927 52.3853 11.6478C52.2539 12.003 52.1883 12.4143 52.1883 12.8819C52.1883 13.3531 52.2539 13.7698 52.3853 14.1319C52.5198 14.4905 52.7132 14.7718 52.9648 14.9757C53.2202 15.1761 53.5339 15.2763 53.9061 15.2763Z" fill="white"/>
<path d="M53.1882 17.0642C52.5677 17.0642 52.0058 16.9059 51.5024 16.5895C51.0024 16.2696 50.6053 15.8002 50.3111 15.1814C50.0202 14.5591 49.875 13.7961 49.875 12.8925C49.875 11.9643 50.0257 11.1925 50.327 10.5772C50.6283 9.95845 51.0289 9.49611 51.5289 9.19021C52.0323 8.88081 52.5837 8.72608 53.183 8.72608C53.6403 8.72608 54.0214 8.80341 54.3264 8.95814C54.6347 9.10931 54.883 9.29918 55.071 9.52774C55.2624 9.75274 55.4077 9.97424 55.507 10.1922H55.5762V6.13129H57.8363V16.9324H55.6026V15.6349H55.507C55.4007 15.86 55.25 16.0832 55.055 16.3048C54.8636 16.5228 54.6135 16.7038 54.305 16.848C54.0002 16.9921 53.6277 17.0642 53.1882 17.0642ZM53.9061 15.2763C54.2712 15.2763 54.5797 15.1779 54.8316 14.981C55.087 14.7806 55.2819 14.501 55.4167 14.1424C55.555 13.7838 55.6238 13.3637 55.6238 12.8819C55.6238 12.4003 55.5567 11.9819 55.4219 11.6268C55.2871 11.2717 55.0922 10.9974 54.8369 10.804C54.5815 10.6107 54.2712 10.514 53.9061 10.514C53.5339 10.514 53.2202 10.6142 52.9648 10.8146C52.7095 11.015 52.5163 11.2927 52.3853 11.6478C52.2539 12.003 52.1883 12.4143 52.1883 12.8819C52.1883 13.3531 52.2539 13.7698 52.3853 14.1319C52.5198 14.4905 52.7132 14.7718 52.9648 14.9757C53.2202 15.1761 53.5339 15.2763 53.9061 15.2763Z" fill="white"/>
<path d="M63.4217 17.0907C62.5813 17.0907 61.8579 16.922 61.2516 16.5844C60.6491 16.2433 60.1845 15.7616 59.8583 15.1393C59.5321 14.5135 59.3691 13.7734 59.3691 12.919C59.3691 12.0857 59.5321 11.3544 59.8583 10.725C60.1845 10.0957 60.6436 9.60519 61.2359 9.25359C61.8315 8.90199 62.5298 8.7262 63.3311 8.7262C63.87 8.7262 64.3717 8.81238 64.8361 8.98461C65.3039 9.15341 65.7119 9.40832 66.0594 9.74935C66.4108 10.0904 66.6838 10.5194 66.8786 11.0362C67.0733 11.5495 67.1707 12.1508 67.1707 12.8399V13.457H60.2731V12.0647H65.0385C65.0385 11.7412 64.9672 11.4546 64.8259 11.2049C64.684 10.9553 64.4873 10.7602 64.2354 10.6196C63.9871 10.4754 63.6982 10.4033 63.3685 10.4033C63.0246 10.4033 62.7196 10.4824 62.4537 10.6406C62.1914 10.7954 61.9857 11.0046 61.8367 11.2683C61.6879 11.5284 61.6116 11.8185 61.6081 12.1385V13.4622C61.6081 13.8631 61.6825 14.2094 61.8315 14.5012C61.984 14.793 62.1984 15.018 62.475 15.1763C62.7515 15.3345 63.0795 15.4135 63.4588 15.4135C63.7105 15.4135 63.9411 15.3784 64.1503 15.3081C64.3594 15.2378 64.5382 15.1323 64.6871 14.9917C64.8361 14.851 64.95 14.6788 65.0277 14.4748L67.123 14.612C67.0167 15.1112 66.7984 15.5472 66.4687 15.9199C66.1428 16.289 65.7208 16.5774 65.2033 16.7848C64.6891 16.9887 64.0951 17.0907 63.4217 17.0907Z" fill="white"/>
<path d="M63.4217 17.0907C62.5813 17.0907 61.8579 16.922 61.2516 16.5844C60.6491 16.2433 60.1845 15.7616 59.8583 15.1393C59.5321 14.5135 59.3691 13.7734 59.3691 12.919C59.3691 12.0857 59.5321 11.3544 59.8583 10.725C60.1845 10.0957 60.6436 9.60519 61.2359 9.25359C61.8315 8.90199 62.5298 8.7262 63.3311 8.7262C63.87 8.7262 64.3717 8.81238 64.8361 8.98461C65.3039 9.15341 65.7119 9.40832 66.0594 9.74935C66.4108 10.0904 66.6838 10.5194 66.8786 11.0362C67.0733 11.5495 67.1707 12.1508 67.1707 12.8399V13.457H60.2731V12.0647H65.0385C65.0385 11.7412 64.9672 11.4546 64.8259 11.2049C64.684 10.9553 64.4873 10.7602 64.2354 10.6196C63.9871 10.4754 63.6982 10.4033 63.3685 10.4033C63.0246 10.4033 62.7196 10.4824 62.4537 10.6406C62.1914 10.7954 61.9857 11.0046 61.8367 11.2683C61.6879 11.5284 61.6116 11.8185 61.6081 12.1385V13.4622C61.6081 13.8631 61.6825 14.2094 61.8315 14.5012C61.984 14.793 62.1984 15.018 62.475 15.1763C62.7515 15.3345 63.0795 15.4135 63.4588 15.4135C63.7105 15.4135 63.9411 15.3784 64.1503 15.3081C64.3594 15.2378 64.5382 15.1323 64.6871 14.9917C64.8361 14.851 64.95 14.6788 65.0277 14.4748L67.123 14.612C67.0167 15.1112 66.7984 15.5472 66.4687 15.9199C66.1428 16.289 65.7208 16.5774 65.2033 16.7848C64.6891 16.9887 64.0951 17.0907 63.4217 17.0907Z" fill="white"/>
<path d="M72.9943 8.83261V10.5203H68.0742V8.83261H72.9943ZM69.1913 6.89178H71.4572V14.4441C71.4572 14.6515 71.489 14.8133 71.5526 14.9293C71.6163 15.0418 71.7054 15.1209 71.8187 15.1666C71.9358 15.2123 72.0707 15.2352 72.2229 15.2352C72.3292 15.2352 72.4355 15.2264 72.5417 15.2088C72.648 15.1877 72.7302 15.1719 72.7868 15.1614L73.1426 16.8332C73.0293 16.8684 72.8702 16.9088 72.664 16.9545C72.4584 17.0037 72.2089 17.0336 71.9142 17.0442C71.3681 17.0652 70.8894 16.9932 70.4782 16.8279C70.0709 16.6627 69.7533 16.406 69.5267 16.0579C69.2995 15.7098 69.1881 15.2703 69.1913 14.7394V6.89178Z" fill="white"/>
<path d="M72.9943 8.83261V10.5203H68.0742V8.83261H72.9943ZM69.1913 6.89178H71.4572V14.4441C71.4572 14.6515 71.489 14.8133 71.5526 14.9293C71.6163 15.0418 71.7054 15.1209 71.8187 15.1666C71.9358 15.2123 72.0707 15.2352 72.2229 15.2352C72.3292 15.2352 72.4355 15.2264 72.5417 15.2088C72.648 15.1877 72.7302 15.1719 72.7868 15.1614L73.1426 16.8332C73.0293 16.8684 72.8702 16.9088 72.664 16.9545C72.4584 17.0037 72.2089 17.0336 71.9142 17.0442C71.3681 17.0652 70.8894 16.9932 70.4782 16.8279C70.0709 16.6627 69.7533 16.406 69.5267 16.0579C69.2995 15.7098 69.1881 15.2703 69.1913 14.7394V6.89178Z" fill="white"/>
<path d="M78.1033 17.0907C77.2631 17.0907 76.5401 16.922 75.9335 16.5844C75.3308 16.2433 74.8661 15.7616 74.5402 15.1393C74.2137 14.5135 74.0508 13.7734 74.0508 12.919C74.0508 12.0857 74.2137 11.3544 74.5402 10.725C74.8661 10.0957 75.325 9.60519 75.9176 9.25359C76.5134 8.90199 77.2116 8.7262 78.0129 8.7262C78.552 8.7262 79.0536 8.81238 79.5182 8.98461C79.9861 9.15341 80.394 9.40832 80.7409 9.74935C81.0923 10.0904 81.3653 10.5194 81.5601 11.0362C81.7549 11.5495 81.8529 12.1508 81.8529 12.8399V13.457H74.9546V12.0647H79.72C79.72 11.7412 79.6494 11.4546 79.5074 11.2049C79.3655 10.9553 79.1688 10.7602 78.9174 10.6196C78.6685 10.4754 78.3802 10.4033 78.0505 10.4033C77.7061 10.4033 77.4013 10.4824 77.1352 10.6406C76.873 10.7954 76.6674 11.0046 76.5185 11.2683C76.3695 11.5284 76.2931 11.8185 76.29 12.1385V13.4622C76.29 13.8631 76.3644 14.2094 76.5134 14.5012C76.6655 14.793 76.88 15.018 77.1569 15.1763C77.4331 15.3345 77.7615 15.4135 78.1409 15.4135C78.3923 15.4135 78.6227 15.3784 78.8321 15.3081C79.0409 15.2378 79.2204 15.1323 79.3693 14.9917C79.5182 14.851 79.6315 14.6788 79.7092 14.4748L81.8045 14.612C81.6982 15.1112 81.4805 15.5472 81.1508 15.9199C80.8243 16.289 80.4023 16.5774 79.8849 16.7848C79.3712 16.9887 78.7774 17.0907 78.1033 17.0907Z" fill="white"/>
<path d="M78.1033 17.0907C77.2631 17.0907 76.5401 16.922 75.9335 16.5844C75.3308 16.2433 74.8661 15.7616 74.5402 15.1393C74.2137 14.5135 74.0508 13.7734 74.0508 12.919C74.0508 12.0857 74.2137 11.3544 74.5402 10.725C74.8661 10.0957 75.325 9.60519 75.9176 9.25359C76.5134 8.90199 77.2116 8.7262 78.0129 8.7262C78.552 8.7262 79.0536 8.81238 79.5182 8.98461C79.9861 9.15341 80.394 9.40832 80.7409 9.74935C81.0923 10.0904 81.3653 10.5194 81.5601 11.0362C81.7549 11.5495 81.8529 12.1508 81.8529 12.8399V13.457H74.9546V12.0647H79.72C79.72 11.7412 79.6494 11.4546 79.5074 11.2049C79.3655 10.9553 79.1688 10.7602 78.9174 10.6196C78.6685 10.4754 78.3802 10.4033 78.0505 10.4033C77.7061 10.4033 77.4013 10.4824 77.1352 10.6406C76.873 10.7954 76.6674 11.0046 76.5185 11.2683C76.3695 11.5284 76.2931 11.8185 76.29 12.1385V13.4622C76.29 13.8631 76.3644 14.2094 76.5134 14.5012C76.6655 14.793 76.88 15.018 77.1569 15.1763C77.4331 15.3345 77.7615 15.4135 78.1409 15.4135C78.3923 15.4135 78.6227 15.3784 78.8321 15.3081C79.0409 15.2378 79.2204 15.1323 79.3693 14.9917C79.5182 14.851 79.6315 14.6788 79.7092 14.4748L81.8045 14.612C81.6982 15.1112 81.4805 15.5472 81.1508 15.9199C80.8243 16.289 80.4023 16.5774 79.8849 16.7848C79.3712 16.9887 78.7774 17.0907 78.1033 17.0907Z" fill="white"/>
<path d="M87.024 17.0907C86.1876 17.0907 85.4678 16.9149 84.865 16.5633C84.2661 16.2082 83.8052 15.7159 83.4825 15.0866C83.1637 14.4572 83.0039 13.733 83.0039 12.9137C83.0039 12.0839 83.1649 11.3562 83.4876 10.7303C83.8142 10.101 84.2769 9.61047 84.8758 9.25888C85.4748 8.90378 86.1876 8.7262 87.0138 8.7262C87.7267 8.7262 88.3504 8.85451 88.8857 9.11121C89.421 9.36784 89.8449 9.72829 90.1568 10.1924C90.4687 10.6565 90.6405 11.2014 90.673 11.8273H88.5344C88.4745 11.4229 88.3148 11.0977 88.0564 10.8516C87.8005 10.602 87.4657 10.4772 87.0507 10.4772C86.7 10.4772 86.3932 10.5721 86.131 10.7619C85.8719 10.9483 85.6702 11.2208 85.5244 11.5795C85.3793 11.9381 85.3067 12.3723 85.3067 12.8821C85.3067 13.3989 85.3774 13.8384 85.5193 14.2006C85.6644 14.5627 85.8687 14.8387 86.131 15.0286C86.3932 15.2185 86.7 15.3134 87.0507 15.3134C87.3098 15.3134 87.5421 15.2607 87.7477 15.1551C87.9571 15.0497 88.1289 14.8967 88.2639 14.6963C88.402 14.4924 88.4924 14.248 88.5344 13.9632H90.673C90.6373 14.582 90.4667 15.127 90.1619 15.5982C89.8608 16.0658 89.4439 16.4314 88.9124 16.6952C88.3803 16.9588 87.7508 17.0907 87.024 17.0907Z" fill="white"/>
<path d="M87.024 17.0907C86.1876 17.0907 85.4678 16.9149 84.865 16.5633C84.2661 16.2082 83.8052 15.7159 83.4825 15.0866C83.1637 14.4572 83.0039 13.733 83.0039 12.9137C83.0039 12.0839 83.1649 11.3562 83.4876 10.7303C83.8142 10.101 84.2769 9.61047 84.8758 9.25888C85.4748 8.90378 86.1876 8.7262 87.0138 8.7262C87.7267 8.7262 88.3504 8.85451 88.8857 9.11121C89.421 9.36784 89.8449 9.72829 90.1568 10.1924C90.4687 10.6565 90.6405 11.2014 90.673 11.8273H88.5344C88.4745 11.4229 88.3148 11.0977 88.0564 10.8516C87.8005 10.602 87.4657 10.4772 87.0507 10.4772C86.7 10.4772 86.3932 10.5721 86.131 10.7619C85.8719 10.9483 85.6702 11.2208 85.5244 11.5795C85.3793 11.9381 85.3067 12.3723 85.3067 12.8821C85.3067 13.3989 85.3774 13.8384 85.5193 14.2006C85.6644 14.5627 85.8687 14.8387 86.131 15.0286C86.3932 15.2185 86.7 15.3134 87.0507 15.3134C87.3098 15.3134 87.5421 15.2607 87.7477 15.1551C87.9571 15.0497 88.1289 14.8967 88.2639 14.6963C88.402 14.4924 88.4924 14.248 88.5344 13.9632H90.673C90.6373 14.582 90.4667 15.127 90.1619 15.5982C89.8608 16.0658 89.4439 16.4314 88.9124 16.6952C88.3803 16.9588 87.7508 17.0907 87.024 17.0907Z" fill="white"/>
<path d="M96.4683 8.83261V10.5203H91.5488V8.83261H96.4683ZM92.6659 6.89178H94.9311V14.4441C94.9311 14.6515 94.9636 14.8133 95.0273 14.9293C95.0909 15.0418 95.1794 15.1209 95.2933 15.1666C95.4104 15.2123 95.5447 15.2352 95.6975 15.2352C95.8038 15.2352 95.9101 15.2264 96.0164 15.2088C96.1227 15.1877 96.2041 15.1719 96.2614 15.1614L96.6172 16.8332C96.5039 16.8684 96.3442 16.9088 96.1386 16.9545C95.933 17.0037 95.6835 17.0336 95.3888 17.0442C94.8427 17.0652 94.364 16.9932 93.9529 16.8279C93.5449 16.6627 93.2279 16.406 93.0013 16.0579C92.7741 15.7098 92.6621 15.2703 92.6659 14.7394V6.89178Z" fill="white"/>
<path d="M96.4683 8.83261V10.5203H91.5488V8.83261H96.4683ZM92.6659 6.89178H94.9311V14.4441C94.9311 14.6515 94.9636 14.8133 95.0273 14.9293C95.0909 15.0418 95.1794 15.1209 95.2933 15.1666C95.4104 15.2123 95.5447 15.2352 95.6975 15.2352C95.8038 15.2352 95.9101 15.2264 96.0164 15.2088C96.1227 15.1877 96.2041 15.1719 96.2614 15.1614L96.6172 16.8332C96.5039 16.8684 96.3442 16.9088 96.1386 16.9545C95.933 17.0037 95.6835 17.0336 95.3888 17.0442C94.8427 17.0652 94.364 16.9932 93.9529 16.8279C93.5449 16.6627 93.2279 16.406 93.0013 16.0579C92.7741 15.7098 92.6621 15.2703 92.6659 14.7394V6.89178Z" fill="white"/>
<path d="M100.273 17.0854C99.7513 17.0854 99.2873 16.9958 98.8794 16.8164C98.4714 16.6336 98.1487 16.3647 97.9113 16.0096C97.6777 15.6509 97.5605 15.2044 97.5605 14.6699C97.5605 14.2199 97.6439 13.8419 97.8107 13.536C97.9768 13.2302 98.204 12.9841 98.4911 12.7977C98.7782 12.6113 99.1047 12.4707 99.47 12.3758C99.8385 12.2809 100.225 12.214 100.629 12.1753C101.105 12.1261 101.487 12.0804 101.778 12.0382C102.068 11.9925 102.279 11.9257 102.411 11.8379C102.542 11.75 102.607 11.6199 102.607 11.4476V11.4159C102.607 11.0819 102.501 10.8235 102.288 10.6406C102.079 10.4578 101.781 10.3664 101.395 10.3664C100.987 10.3664 100.663 10.456 100.422 10.6353C100.181 10.8112 100.021 11.0327 99.9429 11.2999L97.8476 11.1311C97.9539 10.6389 98.1633 10.2135 98.4752 9.85482C98.7871 9.49272 99.1893 9.21496 99.6826 9.02159C100.178 8.82466 100.753 8.7262 101.406 8.7262C101.859 8.7262 102.293 8.77896 102.708 8.88443C103.127 8.98989 103.498 9.15341 103.82 9.37491C104.146 9.59641 104.403 9.88124 104.591 10.2293C104.779 10.5739 104.873 10.9869 104.873 11.4686V16.9325H102.724V15.8091H102.661C102.53 16.0623 102.354 16.2855 102.134 16.4789C101.914 16.6688 101.65 16.8182 101.342 16.9272C101.033 17.0326 100.677 17.0854 100.273 17.0854ZM100.921 15.5349C101.255 15.5349 101.549 15.4698 101.805 15.3397C102.06 15.2062 102.26 15.0268 102.406 14.8018C102.551 14.5768 102.624 14.3218 102.624 14.0371V13.1774C102.553 13.2231 102.455 13.2653 102.331 13.304C102.211 13.3392 102.074 13.3726 101.921 13.4042C101.769 13.4323 101.616 13.4587 101.464 13.4833C101.311 13.5044 101.173 13.5237 101.049 13.5413C100.783 13.58 100.551 13.6415 100.352 13.7259C100.154 13.8103 99.9996 13.9245 99.8901 14.0687C99.78 14.2094 99.7246 14.3852 99.7246 14.5961C99.7246 14.902 99.8366 15.1358 100.06 15.2976C100.287 15.4557 100.574 15.5349 100.921 15.5349Z" fill="white"/>
<path d="M100.273 17.0854C99.7513 17.0854 99.2873 16.9958 98.8794 16.8164C98.4714 16.6336 98.1487 16.3647 97.9113 16.0096C97.6777 15.6509 97.5605 15.2044 97.5605 14.6699C97.5605 14.2199 97.6439 13.8419 97.8107 13.536C97.9768 13.2302 98.204 12.9841 98.4911 12.7977C98.7782 12.6113 99.1047 12.4707 99.47 12.3758C99.8385 12.2809 100.225 12.214 100.629 12.1753C101.105 12.1261 101.487 12.0804 101.778 12.0382C102.068 11.9925 102.279 11.9257 102.411 11.8379C102.542 11.75 102.607 11.6199 102.607 11.4476V11.4159C102.607 11.0819 102.501 10.8235 102.288 10.6406C102.079 10.4578 101.781 10.3664 101.395 10.3664C100.987 10.3664 100.663 10.456 100.422 10.6353C100.181 10.8112 100.021 11.0327 99.9429 11.2999L97.8476 11.1311C97.9539 10.6389 98.1633 10.2135 98.4752 9.85482C98.7871 9.49272 99.1893 9.21496 99.6826 9.02159C100.178 8.82466 100.753 8.7262 101.406 8.7262C101.859 8.7262 102.293 8.77896 102.708 8.88443C103.127 8.98989 103.498 9.15341 103.82 9.37491C104.146 9.59641 104.403 9.88124 104.591 10.2293C104.779 10.5739 104.873 10.9869 104.873 11.4686V16.9325H102.724V15.8091H102.661C102.53 16.0623 102.354 16.2855 102.134 16.4789C101.914 16.6688 101.65 16.8182 101.342 16.9272C101.033 17.0326 100.677 17.0854 100.273 17.0854ZM100.921 15.5349C101.255 15.5349 101.549 15.4698 101.805 15.3397C102.06 15.2062 102.26 15.0268 102.406 14.8018C102.551 14.5768 102.624 14.3218 102.624 14.0371V13.1774C102.553 13.2231 102.455 13.2653 102.331 13.304C102.211 13.3392 102.074 13.3726 101.921 13.4042C101.769 13.4323 101.616 13.4587 101.464 13.4833C101.311 13.5044 101.173 13.5237 101.049 13.5413C100.783 13.58 100.551 13.6415 100.352 13.7259C100.154 13.8103 99.9996 13.9245 99.8901 14.0687C99.78 14.2094 99.7246 14.3852 99.7246 14.5961C99.7246 14.902 99.8366 15.1358 100.06 15.2976C100.287 15.4557 100.574 15.5349 100.921 15.5349Z" fill="white"/>
<path d="M106.672 16.9324V6.13129H108.937V10.1922H109.007C109.106 9.97424 109.249 9.75274 109.437 9.52774C109.629 9.29918 109.877 9.10931 110.182 8.95814C110.49 8.80341 110.873 8.72608 111.33 8.72608C111.926 8.72608 112.475 8.88081 112.979 9.19021C113.483 9.49611 113.885 9.95845 114.186 10.5772C114.488 11.1925 114.639 11.9643 114.639 12.8925C114.639 13.7961 114.492 14.5591 114.197 15.1814C113.906 15.8002 113.509 16.2696 113.006 16.5895C112.506 16.9059 111.946 17.0642 111.325 17.0642C110.885 17.0642 110.512 16.9921 110.203 16.848C109.898 16.7038 109.648 16.5228 109.453 16.3048C109.259 16.0832 109.109 15.86 109.007 15.6349H108.905V16.9324H106.672ZM108.889 12.8819C108.889 13.3637 108.957 13.7838 109.092 14.1424C109.226 14.501 109.422 14.7806 109.677 14.981C109.932 15.1779 110.242 15.2763 110.607 15.2763C110.976 15.2763 111.288 15.1761 111.544 14.9757C111.799 14.7718 111.992 14.4905 112.123 14.1319C112.258 13.7698 112.325 13.3531 112.325 12.8819C112.325 12.4143 112.26 12.003 112.129 11.6478C111.997 11.2927 111.804 11.015 111.549 10.8146C111.293 10.6142 110.98 10.514 110.607 10.514C110.239 10.514 109.926 10.6107 109.672 10.804C109.42 10.9974 109.226 11.2717 109.092 11.6268C108.957 11.9819 108.889 12.4003 108.889 12.8819Z" fill="white"/>
<path d="M106.672 16.9324V6.13129H108.937V10.1922H109.007C109.106 9.97424 109.249 9.75274 109.437 9.52774C109.629 9.29918 109.877 9.10931 110.182 8.95814C110.49 8.80341 110.873 8.72608 111.33 8.72608C111.926 8.72608 112.475 8.88081 112.979 9.19021C113.483 9.49611 113.885 9.95845 114.186 10.5772C114.488 11.1925 114.639 11.9643 114.639 12.8925C114.639 13.7961 114.492 14.5591 114.197 15.1814C113.906 15.8002 113.509 16.2696 113.006 16.5895C112.506 16.9059 111.946 17.0642 111.325 17.0642C110.885 17.0642 110.512 16.9921 110.203 16.848C109.898 16.7038 109.648 16.5228 109.453 16.3048C109.259 16.0832 109.109 15.86 109.007 15.6349H108.905V16.9324H106.672ZM108.889 12.8819C108.889 13.3637 108.957 13.7838 109.092 14.1424C109.226 14.501 109.422 14.7806 109.677 14.981C109.932 15.1779 110.242 15.2763 110.607 15.2763C110.976 15.2763 111.288 15.1761 111.544 14.9757C111.799 14.7718 111.992 14.4905 112.123 14.1319C112.258 13.7698 112.325 13.3531 112.325 12.8819C112.325 12.4143 112.26 12.003 112.129 11.6478C111.997 11.2927 111.804 11.015 111.549 10.8146C111.293 10.6142 110.98 10.514 110.607 10.514C110.239 10.514 109.926 10.6107 109.672 10.804C109.42 10.9974 109.226 11.2717 109.092 11.6268C108.957 11.9819 108.889 12.4003 108.889 12.8819Z" fill="white"/>
<path d="M118.418 6.13129V16.9324H116.152V6.13129H118.418Z" fill="white"/>
<path d="M118.418 6.13129V16.9324H116.152V6.13129H118.418Z" fill="white"/>
<path d="M123.957 17.0907C123.117 17.0907 122.394 16.922 121.787 16.5844C121.184 16.2433 120.72 15.7616 120.394 15.1393C120.068 14.5135 119.904 13.7734 119.904 12.919C119.904 12.0857 120.068 11.3544 120.394 10.725C120.72 10.0957 121.179 9.60519 121.771 9.25359C122.367 8.90199 123.065 8.7262 123.866 8.7262C124.406 8.7262 124.907 8.81238 125.372 8.98461C125.84 9.15341 126.248 9.40832 126.595 9.74935C126.946 10.0904 127.219 10.5194 127.414 11.0362C127.609 11.5495 127.706 12.1508 127.706 12.8399V13.457H120.809V12.0647H125.574C125.574 11.7412 125.503 11.4546 125.361 11.2049C125.219 10.9553 125.022 10.7602 124.771 10.6196C124.523 10.4754 124.234 10.4033 123.904 10.4033C123.56 10.4033 123.255 10.4824 122.989 10.6406C122.726 10.7954 122.521 11.0046 122.372 11.2683C122.223 11.5284 122.147 11.8185 122.143 12.1385V13.4622C122.143 13.8631 122.218 14.2094 122.367 14.5012C122.519 14.793 122.734 15.018 123.01 15.1763C123.287 15.3345 123.615 15.4135 123.994 15.4135C124.246 15.4135 124.476 15.3784 124.686 15.3081C124.895 15.2378 125.074 15.1323 125.223 14.9917C125.372 14.851 125.485 14.6788 125.563 14.4748L127.659 14.612C127.552 15.1112 127.334 15.5472 127.004 15.9199C126.678 16.289 126.256 16.5774 125.738 16.7848C125.225 16.9887 124.631 17.0907 123.957 17.0907Z" fill="white"/>
<path d="M123.957 17.0907C123.117 17.0907 122.394 16.922 121.787 16.5844C121.184 16.2433 120.72 15.7616 120.394 15.1393C120.068 14.5135 119.904 13.7734 119.904 12.919C119.904 12.0857 120.068 11.3544 120.394 10.725C120.72 10.0957 121.179 9.60519 121.771 9.25359C122.367 8.90199 123.065 8.7262 123.866 8.7262C124.406 8.7262 124.907 8.81238 125.372 8.98461C125.84 9.15341 126.248 9.40832 126.595 9.74935C126.946 10.0904 127.219 10.5194 127.414 11.0362C127.609 11.5495 127.706 12.1508 127.706 12.8399V13.457H120.809V12.0647H125.574C125.574 11.7412 125.503 11.4546 125.361 11.2049C125.219 10.9553 125.022 10.7602 124.771 10.6196C124.523 10.4754 124.234 10.4033 123.904 10.4033C123.56 10.4033 123.255 10.4824 122.989 10.6406C122.726 10.7954 122.521 11.0046 122.372 11.2683C122.223 11.5284 122.147 11.8185 122.143 12.1385V13.4622C122.143 13.8631 122.218 14.2094 122.367 14.5012C122.519 14.793 122.734 15.018 123.01 15.1763C123.287 15.3345 123.615 15.4135 123.994 15.4135C124.246 15.4135 124.476 15.3784 124.686 15.3081C124.895 15.2378 125.074 15.1323 125.223 14.9917C125.372 14.851 125.485 14.6788 125.563 14.4748L127.659 14.612C127.552 15.1112 127.334 15.5472 127.004 15.9199C126.678 16.289 126.256 16.5774 125.738 16.7848C125.225 16.9887 124.631 17.0907 123.957 17.0907Z" fill="white"/>
<g opacity="0.5">
<path d="M11.1861 0.72204C10.8904 0.58583 10.5331 0.716887 10.3959 1.01006C8.50441 4.99633 7.73674 9.16957 8.61242 13.7774C8.71184 14.004 8.95434 14.1469 9.188 14.1218C9.26215 14.1168 9.32656 14.1005 9.40218 14.0746C9.69656 13.939 9.83824 13.5834 9.70139 13.2914C8.99763 9.26956 9.79318 5.06514 11.4866 1.51693C11.614 1.21261 11.4817 0.858249 11.1861 0.72204Z" fill="#9259DD"/>
<path d="M11.729 4.67039C10.9855 7.21892 10.6889 9.85176 10.8521 12.5386C10.8699 12.8743 11.158 13.1145 11.4868 13.0859C11.8252 13.0684 12.0672 12.7828 12.0382 12.4567C11.8855 9.91694 12.1632 7.39765 12.8752 4.99315C12.9719 4.67617 12.7849 4.34923 12.4653 4.2531C12.1553 4.16811 11.8258 4.35341 11.729 4.67039Z" fill="#9259DD"/>
<path d="M16.2446 1.74803C15.9235 1.56802 15.5146 1.68927 15.3533 2.01828C14.4711 3.81753 13.068 7.14994 13.3906 12.3866L13.4003 12.3977C13.4306 12.9955 13.19 13.553 12.7083 13.9468C12.2363 14.3518 11.6245 14.5063 11.0338 14.3698C10.7126 14.2944 10.3928 14.4908 10.3267 14.8205C10.2509 15.139 10.4491 15.4563 10.7815 15.522C11.072 15.5847 11.3655 15.6058 11.6508 15.595C12.318 15.5489 12.9584 15.2919 13.4962 14.8499C14.2588 14.2151 14.6637 13.2828 14.5976 12.3062C14.5976 12.3062 14.5879 12.2951 14.5992 12.2854C14.3021 7.37386 15.5997 4.28124 16.4941 2.63163C16.6645 2.31741 16.5578 1.92357 16.2446 1.74803Z" fill="#9259DD"/>
<path d="M8.25348 1.20515C7.93752 1.08287 7.58083 1.23745 7.4564 1.55028C6.96866 2.58699 6.67965 3.63889 6.52462 4.82899C6.48119 5.16235 6.72104 5.45001 7.04959 5.48053C7.38569 5.52376 7.67561 5.28597 7.70622 4.96009C7.89831 3.88658 8.15539 3.24167 8.60857 1.96359C8.7171 1.65757 8.55816 1.3231 8.25348 1.20515Z" fill="#9259DD"/>
<path d="M3.18866 17.7752C2.92828 17.9734 2.87126 18.3467 3.07128 18.605C3.5209 19.1966 4.0352 19.7491 4.60493 20.2308C4.72677 20.34 4.89313 20.3883 5.06198 20.3742C5.20984 20.3593 5.34927 20.2918 5.45929 20.171C5.67933 19.9294 5.65234 19.5528 5.40865 19.3345C4.91035 18.9079 4.44647 18.4095 4.04644 17.8929C3.82542 17.6337 3.44903 17.577 3.18866 17.7752Z" fill="#9259DD"/>
<path d="M19.67 17.9085C19.4085 17.7086 19.0299 17.7478 18.8286 18.007C16.1902 21.3137 11.2536 22.4786 7.34474 20.6905C7.04084 20.553 6.69315 20.6861 6.55458 20.9874C6.41601 21.2887 6.55042 21.6336 6.85433 21.7711C11.2196 23.7472 16.7894 22.4795 19.7803 18.7326C19.9711 18.4838 19.9315 18.1083 19.67 17.9085Z" fill="#9259DD"/>
<path d="M2.01343 6.58169C1.74424 6.55522 1.48987 6.71238 1.40849 6.96821C0.566579 9.61467 0.522163 13.163 1.56464 16.0881C1.65838 16.3323 1.88227 16.4783 2.12603 16.4798C2.20034 16.4793 2.26566 16.4672 2.32198 16.4433C2.6334 16.3382 2.7976 15.9923 2.69154 15.6834C1.70456 12.963 1.94033 10.005 2.53712 7.30536C2.61406 6.95727 2.37101 6.61686 2.01343 6.58169Z" fill="#9259DD"/>
<path d="M21.1244 6.58169C21.3936 6.55522 21.6479 6.71238 21.7293 6.96821C22.5712 9.61467 22.6156 13.163 21.5732 16.0881C21.4794 16.3323 21.2555 16.4783 21.0118 16.4798C20.9375 16.4793 20.8722 16.4672 20.8158 16.4433C20.5044 16.3382 20.3402 15.9923 20.4463 15.6834C21.4332 12.963 21.1975 10.005 20.6007 7.30536C20.5238 6.95727 20.7668 6.61686 21.1244 6.58169Z" fill="#9259DD"/>
<path d="M18.5228 2.99928C18.2308 2.85069 17.8661 2.95923 17.7162 3.24901C17.5215 3.51838 17.2462 4.1686 17.1814 4.55256C17.134 4.70848 17.1611 4.87828 17.2462 5.02359C17.3231 5.14973 17.4442 5.24585 17.6013 5.2928C17.9156 5.38671 18.2473 5.20143 18.3421 4.8896C18.4294 4.60233 18.5807 4.11858 18.7825 3.81849C18.9843 3.5184 18.8149 3.14788 18.5228 2.99928Z" fill="#9259DD"/>
<path d="M4.97722 2.73447C4.66607 2.63073 4.32189 2.79198 4.21726 3.1007C4.06522 3.39586 3.89074 4.27961 3.88442 4.66886C3.86101 4.83003 3.91333 4.99393 4.01935 5.12503C4.11434 5.23838 4.24857 5.31552 4.41103 5.3387C4.73594 5.38506 5.03607 5.15279 5.08288 4.83043C5.12599 4.53346 5.25286 3.86159 5.35721 3.50609C5.46156 3.1506 5.28836 2.8382 4.97722 2.73447Z" fill="#9259DD"/>
<path d="M13.8724 1.0353C13.5804 0.8867 13.2158 0.99524 13.0659 1.28503C12.8711 1.55439 12.5958 2.20461 12.531 2.58858C12.4836 2.74449 12.5107 2.91429 12.5958 3.0596C12.6727 3.18574 12.7938 3.28187 12.9509 3.32881C13.2652 3.42272 13.597 3.23744 13.6917 2.92561C13.779 2.63834 13.9303 2.1546 14.1321 1.8545C14.3338 1.55441 14.1645 1.18389 13.8724 1.0353Z" fill="#9259DD"/>
<path d="M20.8511 4.96849C20.8511 5.29997 20.5801 5.56869 20.2459 5.56869C19.9116 5.56869 19.6406 5.29997 19.6406 4.96849C19.6406 4.63701 19.9116 4.36829 20.2459 4.36829C20.5801 4.36829 20.8511 4.63701 20.8511 4.96849Z" fill="#9259DD"/>
</g>
<path d="M3.52734 12.3764C3.52734 14.1361 4.21631 15.4078 5.21931 16.2509C6.96449 17.718 9.64471 17.9364 11.6912 16.9885C11.6041 16.9934 11.5164 16.9959 11.4281 16.9959C8.87519 16.9959 6.80566 14.9277 6.80566 12.3764L6.80566 6.76891C6.80566 6.40982 6.51211 6.11871 6.15 6.11871C4.70155 6.11871 3.52734 7.28316 3.52734 8.71953V12.3764Z" fill="#9259DD"/>
<path d="M5.0918 17.0952C6.53233 19.0235 8.83374 20.2721 11.427 20.2721C15.7905 20.2721 19.3278 16.7371 19.3278 12.3764V6.76891C19.3278 6.40982 19.0342 6.11871 18.672 6.11871C17.2236 6.11871 16.0494 7.28316 16.0494 8.71953V12.3764C16.0494 17.7021 9.08127 19.9407 5.0918 17.0952Z" fill="#9259DD"/>
</g>
</g>
<defs>
<clipPath id="clip0_2253_39417">
<rect width="127.298" height="22.2772" fill="white" transform="translate(0.779297 0.668518)"/>
</clipPath>
</defs>
</svg>
