<svg width="63" height="26" viewBox="0 0 63 26" fill="none" xmlns="http://www.w3.org/2000/svg">
<path fill-rule="evenodd" clip-rule="evenodd" d="M62.2369 13.4401C62.2369 9.0489 60.1099 5.58398 56.0446 5.58398C51.9622 5.58398 49.4922 9.0489 49.4922 13.4058C49.4922 18.5688 52.4082 21.1761 56.5935 21.1761C58.6348 21.1761 60.1785 20.713 61.3449 20.0612V16.6305C60.1785 17.2138 58.8406 17.574 57.1424 17.574C55.4786 17.574 54.0034 16.9908 53.8148 14.9667H62.2026C62.2026 14.7437 62.2369 13.8518 62.2369 13.4401ZM53.7633 11.8105C53.7633 9.87225 54.9469 9.06605 56.0275 9.06605C57.0738 9.06605 58.1888 9.87225 58.1888 11.8105H53.7633Z" fill="white"/>
<path fill-rule="evenodd" clip-rule="evenodd" d="M42.8714 5.58398C41.1904 5.58398 40.1097 6.37303 39.5094 6.92192L39.2864 5.85843H35.5127V25.8589L39.801 24.9498L39.8181 20.0955C40.4356 20.5414 41.3447 21.1761 42.8542 21.1761C45.9246 21.1761 48.7205 18.7061 48.7205 13.2685C48.7034 8.29417 45.8731 5.58398 42.8714 5.58398ZM41.8422 17.4024C40.8301 17.4024 40.2298 17.0422 39.8181 16.5962L39.801 10.2325C40.2469 9.73502 40.8644 9.39196 41.8422 9.39196C43.4031 9.39196 44.4837 11.1416 44.4837 13.3886C44.4837 15.6871 43.4202 17.4024 41.8422 17.4024Z" fill="white"/>
<path fill-rule="evenodd" clip-rule="evenodd" d="M33.9177 0.164062L29.6123 1.07317V4.5724L33.9177 3.64613V0.164062Z" fill="white"/>
<path fill-rule="evenodd" clip-rule="evenodd" d="M29.6123 5.875H33.9177V20.8839H29.6123V5.875Z" fill="white"/>
<path fill-rule="evenodd" clip-rule="evenodd" d="M24.9981 7.14585L24.7236 5.87652H21.0186V20.8854H25.3068V10.7137C26.3188 9.3929 28.0342 9.63304 28.5659 9.82172V5.87652C28.017 5.67069 26.0101 5.29332 24.9981 7.14585Z" fill="white"/>
<path fill-rule="evenodd" clip-rule="evenodd" d="M16.4212 2.1543L12.2359 3.04626L12.2188 16.7858C12.2188 19.3245 14.1227 21.1942 16.6614 21.1942C18.0679 21.1942 19.0971 20.9369 19.6632 20.6281V17.1461C19.1143 17.369 16.4041 18.1581 16.4041 15.6194V9.53011H19.6632V5.87651H16.4041L16.4212 2.1543Z" fill="white"/>
<path fill-rule="evenodd" clip-rule="evenodd" d="M4.82605 10.2325C4.82605 9.56349 5.37495 9.3062 6.28406 9.3062C7.58769 9.3062 9.23438 9.70072 10.538 10.404V6.37302C9.11431 5.80697 7.70776 5.58398 6.28406 5.58398C2.80199 5.58398 0.486328 7.40221 0.486328 10.4383C0.486328 15.1725 7.00448 14.4178 7.00448 16.459C7.00448 17.2481 6.31836 17.5054 5.35779 17.5054C3.93409 17.5054 2.11587 16.9221 0.675011 16.1331V20.2155C2.27024 20.9017 3.88263 21.1933 5.35779 21.1933C8.92563 21.1933 11.3785 19.4265 11.3785 16.3561C11.3614 11.2445 4.82605 12.1536 4.82605 10.2325Z" fill="white"/>
</svg>
